<svg width="18" height="11" viewBox="0 0 18 11" fill="none" xmlns="http://www.w3.org/2000/svg">
<path fill-rule="evenodd" clip-rule="evenodd" d="M17.28 1.0316C17.28 0.461865 16.8502 0 16.32 0H15.36C14.8298 0 14.4 0.461865 14.4 1.0316V9.97217C14.4 10.5419 14.8298 11.0038 15.36 11.0038H16.32C16.8502 11.0038 17.28 10.5419 17.28 9.97217V1.0316ZM10.5893 2.20075H11.5493C12.0795 2.20075 12.5093 2.6737 12.5093 3.25712V9.94741C12.5093 10.5308 12.0795 11.0038 11.5493 11.0038H10.5893C10.0591 11.0038 9.6293 10.5308 9.6293 9.94741V3.25712C9.6293 2.6737 10.0591 2.20075 10.5893 2.20075ZM6.6907 4.5849H5.7307C5.20051 4.5849 4.7707 5.06387 4.7707 5.65471V9.93395C4.7707 10.5248 5.20051 11.0038 5.7307 11.0038H6.6907C7.2209 11.0038 7.6507 10.5248 7.6507 9.93395V5.65471C7.6507 5.06387 7.2209 4.5849 6.6907 4.5849ZM1.92 6.78566H0.96C0.429807 6.78566 0 7.25779 0 7.84019V9.94925C0 10.5316 0.429807 11.0038 0.96 11.0038H1.92C2.45019 11.0038 2.88 10.5316 2.88 9.94925V7.84019C2.88 7.25779 2.45019 6.78566 1.92 6.78566Z" fill="black"/>
</svg>
