<svg width="32" height="32" viewBox="0 0 32 32" fill="none" xmlns="http://www.w3.org/2000/svg">
<path fill-rule="evenodd" clip-rule="evenodd" d="M21 14.5C21 18.0899 18.0899 21 14.5 21C10.9101 21 8 18.0899 8 14.5C8 10.9101 10.9101 8 14.5 8C18.0899 8 21 10.9101 21 14.5ZM19.3498 21.4816C17.9744 22.4388 16.3027 23 14.5 23C9.80558 23 6 19.1944 6 14.5C6 9.80558 9.80558 6 14.5 6C19.1944 6 23 9.80558 23 14.5C23 16.3081 22.4355 17.9843 21.4731 19.362L26.0916 23.9133L23.986 26.0501L19.3498 21.4816Z" fill="#0F1419"/>
</svg>
