<svg width="32" height="32" viewBox="0 0 32 32" fill="none" xmlns="http://www.w3.org/2000/svg">
<path d="M7 13.294V25.75C7 25.8881 7.11193 26 7.25 26H13.1029C13.241 26 13.3529 25.8881 13.3529 25.75V18.5473C13.3529 18.4092 13.4649 18.2973 13.6029 18.2973H18.3971C18.5351 18.2973 18.6471 18.4092 18.6471 18.5473V25.75C18.6471 25.8881 18.759 26 18.8971 26H24.75C24.8881 26 25 25.8881 25 25.75V13.294C25 13.2115 24.9593 13.1343 24.8912 13.0877L16.1412 7.0967C16.0561 7.03841 15.9439 7.03841 15.8588 7.0967L7.10876 13.0877C7.0407 13.1343 7 13.2115 7 13.294Z" stroke="#0F1419" stroke-width="2"/>
</svg>
