<svg width="16" height="12" viewBox="0 0 16 12" fill="none" xmlns="http://www.w3.org/2000/svg">
<path fill-rule="evenodd" clip-rule="evenodd" d="M7.71417 2.21965C9.95257 2.21975 12.1054 3.04962 13.7276 4.53775C13.8498 4.65264 14.0451 4.65119 14.1654 4.5345L15.3331 3.39738C15.394 3.3382 15.428 3.25803 15.4275 3.17462C15.427 3.09121 15.3921 3.01143 15.3304 2.95293C11.0725 -0.984311 4.35516 -0.984311 0.0972503 2.95293C0.0355716 3.01138 0.00057579 3.09114 7.04158e-06 3.17455C-0.000561706 3.25796 0.0333435 3.33816 0.0942199 3.39738L1.2623 4.5345C1.38254 4.65137 1.57795 4.65282 1.70003 4.53775C3.3225 3.04952 5.47555 2.21965 7.71417 2.21965ZM7.71115 6.0179C8.93274 6.01783 10.1107 6.47839 11.0162 7.31011C11.1387 7.42815 11.3316 7.42559 11.451 7.30434L12.6096 6.11696C12.6706 6.05468 12.7044 5.97019 12.7036 5.8824C12.7027 5.7946 12.6672 5.71082 12.6049 5.64981C9.84745 3.04805 5.57719 3.04805 2.81974 5.64981C2.75746 5.71082 2.72192 5.79464 2.7211 5.88246C2.72028 5.97029 2.75425 6.05477 2.81539 6.11696L3.97361 7.30434C4.093 7.42559 4.28593 7.42815 4.40841 7.31011C5.31331 6.47894 6.49037 6.01841 7.71115 6.0179ZM9.98313 8.5321C9.98487 8.62691 9.95151 8.71832 9.89094 8.78475L7.93194 10.994C7.87452 11.0589 7.79622 11.0955 7.71453 11.0955C7.63284 11.0955 7.55455 11.0589 7.49712 10.994L5.53779 8.78475C5.47727 8.71828 5.44397 8.62683 5.44577 8.53202C5.44756 8.4372 5.48429 8.34742 5.54728 8.28386C6.79836 7.10136 8.6307 7.10136 9.88179 8.28386C9.94473 8.34747 9.9814 8.43728 9.98313 8.5321Z" fill="black"/>
</svg>
