<svg width="1232" height="221" viewBox="0 0 1232 221" fill="none" xmlns="http://www.w3.org/2000/svg">
<path d="M484 68.1353L484 93.2204" stroke="#888888" stroke-width="2"/>
<path d="M653 42L647.226 52L658.774 52L653 42ZM652 51L652 93L654 93L654 51L652 51Z" fill="#888888"/>
<path d="M822 68.1353L822 93.2204" stroke="#888888" stroke-width="2"/>
<path d="M315 93L315 68H991V93" stroke="#888888" stroke-width="2"/>
<path d="M521.24 31V11.12H528.94C533.588 11.12 536.36 13.5 536.36 17.448C536.36 21.424 533.588 23.832 528.94 23.832H524.88V31H521.24ZM524.88 20.668H528.772C531.236 20.668 532.608 19.576 532.608 17.448C532.608 15.376 531.264 14.284 528.772 14.284H524.88V20.668ZM544.949 31.336C540.497 31.336 537.585 28.256 537.585 23.524C537.585 18.792 540.497 15.712 544.949 15.712C549.373 15.712 552.285 18.792 552.285 23.524C552.285 28.256 549.373 31.336 544.949 31.336ZM544.949 28.424C547.245 28.424 548.561 26.632 548.561 23.524C548.561 20.444 547.245 18.624 544.949 18.624C542.625 18.624 541.309 20.444 541.309 23.524C541.309 26.632 542.625 28.424 544.949 28.424ZM558.463 31C556.279 31 554.879 29.964 554.879 27.472V11.12H558.463V27.108C558.463 27.892 558.855 28.228 559.583 28.228H560.675V31H558.463ZM562.609 14.06V10.868H566.333V14.06H562.609ZM562.665 31V16.048H566.249V31H562.665ZM574.939 31C571.971 31 570.599 29.684 570.599 26.716V18.82H568.247V16.048H570.599V12.548H574.183V16.048H578.131V18.82H574.183V26.38C574.183 27.78 574.771 28.228 576.031 28.228H578.131V31H574.939ZM580.395 14.06V10.868H584.119V14.06H580.395ZM580.451 31V16.048H584.035V31H580.451ZM593.885 31.336C589.433 31.336 586.521 28.256 586.521 23.524C586.521 18.82 589.433 15.712 593.885 15.712C597.665 15.712 600.409 17.784 600.857 21.34L597.161 21.536C596.853 19.632 595.621 18.624 593.885 18.624C591.561 18.624 590.245 20.444 590.245 23.524C590.245 26.632 591.561 28.424 593.885 28.424C595.621 28.424 596.881 27.416 597.161 25.316L600.857 25.484C600.437 29.068 597.721 31.336 593.885 31.336ZM607.609 31.336C604.473 31.336 602.401 29.852 602.401 27.248C602.401 24.672 603.997 23.3 607.273 22.656L612.229 21.676C612.229 19.576 611.249 18.484 609.345 18.484C607.609 18.484 606.629 19.296 606.293 20.808L602.653 20.64C603.241 17.504 605.649 15.712 609.345 15.712C613.601 15.712 615.813 17.952 615.813 21.928V27.36C615.813 28.172 616.093 28.396 616.653 28.396H617.129V31C616.877 31.056 616.317 31.112 615.813 31.112C614.189 31.112 612.985 30.524 612.705 28.704C611.949 30.3 610.045 31.336 607.609 31.336ZM608.337 28.732C610.717 28.732 612.229 27.22 612.229 24.952V24.112L608.365 24.896C606.769 25.204 606.125 25.876 606.125 26.912C606.125 28.088 606.909 28.732 608.337 28.732ZM622.514 31C620.33 31 618.93 29.964 618.93 27.472V11.12H622.514V27.108C622.514 27.892 622.906 28.228 623.634 28.228H624.726V31H622.514ZM633.523 31V11.12H641.223C645.871 11.12 648.643 13.5 648.643 17.448C648.643 21.424 645.871 23.832 641.223 23.832H637.163V31H633.523ZM637.163 20.668H641.055C643.519 20.668 644.891 19.576 644.891 17.448C644.891 15.376 643.547 14.284 641.055 14.284H637.163V20.668ZM657.232 31.336C652.78 31.336 649.868 28.256 649.868 23.524C649.868 18.792 652.78 15.712 657.232 15.712C661.656 15.712 664.568 18.792 664.568 23.524C664.568 28.256 661.656 31.336 657.232 31.336ZM657.232 28.424C659.528 28.424 660.844 26.632 660.844 23.524C660.844 20.444 659.528 18.624 657.232 18.624C654.908 18.624 653.592 20.444 653.592 23.524C653.592 26.632 654.908 28.424 657.232 28.424ZM670.746 31C668.562 31 667.162 29.964 667.162 27.472V11.12H670.746V27.108C670.746 27.892 671.138 28.228 671.866 28.228H672.958V31H670.746ZM679.452 31.336C676.316 31.336 674.244 29.852 674.244 27.248C674.244 24.672 675.84 23.3 679.116 22.656L684.072 21.676C684.072 19.576 683.092 18.484 681.188 18.484C679.452 18.484 678.472 19.296 678.136 20.808L674.496 20.64C675.084 17.504 677.492 15.712 681.188 15.712C685.444 15.712 687.656 17.952 687.656 21.928V27.36C687.656 28.172 687.936 28.396 688.496 28.396H688.972V31C688.72 31.056 688.16 31.112 687.656 31.112C686.032 31.112 684.828 30.524 684.548 28.704C683.792 30.3 681.888 31.336 679.452 31.336ZM680.18 28.732C682.56 28.732 684.072 27.22 684.072 24.952V24.112L680.208 24.896C678.612 25.204 677.968 25.876 677.968 26.912C677.968 28.088 678.752 28.732 680.18 28.732ZM690.992 31V16.048H694.352L694.436 18.96C695.024 16.944 696.172 16.048 698.02 16.048H699.392V19.128H697.992C695.696 19.128 694.576 20.08 694.576 22.376V31H690.992ZM701.347 14.06V10.868H705.071V14.06H701.347ZM701.403 31V16.048H704.987V31H701.403ZM714.417 31.336C709.993 31.336 707.697 29.236 707.473 26.296L711.141 26.128C711.393 27.696 712.373 28.592 714.445 28.592C716.097 28.592 717.133 28.088 717.133 26.912C717.133 25.904 716.601 25.456 713.857 24.98C709.265 24.196 707.837 22.964 707.837 20.416C707.837 17.644 709.993 15.712 714.165 15.712C718.197 15.712 720.269 17.868 720.661 20.752L717.049 20.92C716.797 19.408 715.789 18.456 714.109 18.456C712.429 18.456 711.561 19.212 711.561 20.304C711.561 21.508 712.345 21.984 714.613 22.348C719.317 23.076 720.829 24.364 720.829 26.856C720.829 29.74 718.253 31.336 714.417 31.336ZM727.877 31.336C724.741 31.336 722.669 29.852 722.669 27.248C722.669 24.672 724.265 23.3 727.541 22.656L732.497 21.676C732.497 19.576 731.517 18.484 729.613 18.484C727.877 18.484 726.897 19.296 726.561 20.808L722.921 20.64C723.509 17.504 725.917 15.712 729.613 15.712C733.869 15.712 736.081 17.952 736.081 21.928V27.36C736.081 28.172 736.361 28.396 736.921 28.396H737.397V31C737.145 31.056 736.585 31.112 736.081 31.112C734.457 31.112 733.253 30.524 732.973 28.704C732.217 30.3 730.313 31.336 727.877 31.336ZM728.605 28.732C730.985 28.732 732.497 27.22 732.497 24.952V24.112L728.633 24.896C727.037 25.204 726.393 25.876 726.393 26.912C726.393 28.088 727.177 28.732 728.605 28.732ZM744.642 31C741.674 31 740.302 29.684 740.302 26.716V18.82H737.95V16.048H740.302V12.548H743.886V16.048H747.834V18.82H743.886V26.38C743.886 27.78 744.474 28.228 745.734 28.228H747.834V31H744.642ZM750.099 14.06V10.868H753.823V14.06H750.099ZM750.155 31V16.048H753.739V31H750.155ZM763.589 31.336C759.137 31.336 756.225 28.256 756.225 23.524C756.225 18.792 759.137 15.712 763.589 15.712C768.013 15.712 770.925 18.792 770.925 23.524C770.925 28.256 768.013 31.336 763.589 31.336ZM763.589 28.424C765.885 28.424 767.201 26.632 767.201 23.524C767.201 20.444 765.885 18.624 763.589 18.624C761.265 18.624 759.949 20.444 759.949 23.524C759.949 26.632 761.265 28.424 763.589 28.424ZM773.383 31V16.048H776.631L776.715 18.596C777.527 16.552 779.207 15.712 781.195 15.712C784.499 15.712 786.291 18.036 786.291 21.396V31H782.707V22.544C782.707 20.024 782.035 18.624 780.103 18.624C778.171 18.624 776.967 20.024 776.967 22.544V31H773.383Z" fill="black"/>
<rect x="237" y="93" width="155" height="40" rx="20" fill="#BDE3FF"/>
<path d="M255.539 118.5V106.626H256.977V118.5H255.539ZM259.825 118.5V109.637H261.112L261.146 111.225C261.614 110.005 262.651 109.436 263.872 109.436C265.895 109.436 266.865 110.924 266.865 112.797V118.5H265.46V113.199C265.46 111.56 264.909 110.673 263.571 110.673C262.199 110.673 261.229 111.56 261.229 113.199V118.5H259.825ZM271.933 118.5C270.327 118.5 269.575 117.798 269.575 116.226V110.874H268.27V109.637H269.575V107.563H270.979V109.637H273.337V110.874H270.979V116.192C270.979 116.995 271.331 117.262 272.067 117.262H273.337V118.5H271.933ZM278.254 118.701C275.745 118.701 274.19 116.878 274.19 114.068C274.19 111.259 275.745 109.436 278.187 109.436C280.495 109.436 282.1 111.108 282.1 114.085V114.503H275.662C275.762 116.41 276.715 117.363 278.254 117.363C279.408 117.363 280.16 116.777 280.461 115.874L281.966 115.991C281.498 117.58 280.127 118.701 278.254 118.701ZM275.662 113.266H280.562C280.428 111.56 279.491 110.774 278.187 110.774C276.816 110.774 275.896 111.627 275.662 113.266ZM283.819 118.5V109.637H285.057L285.107 111.275C285.424 110.155 286.127 109.637 287.214 109.637H288.083V110.974H287.231C285.893 110.974 285.224 111.694 285.224 113.149V118.5H283.819ZM290.008 118.5V110.874H288.804V109.637H290.008V108.834C290.008 107.529 290.744 106.626 292.35 106.626H293.754V107.864H292.45C291.748 107.864 291.413 108.265 291.413 108.934V109.637H293.637V110.874H291.413V118.5H290.008ZM297.438 118.701C295.598 118.701 294.444 117.814 294.444 116.293C294.444 114.787 295.297 113.951 297.237 113.583L300.381 112.998C300.381 111.51 299.679 110.774 298.274 110.774C297.036 110.774 296.351 111.342 296.083 112.363L294.595 112.245C294.929 110.573 296.267 109.436 298.274 109.436C300.548 109.436 301.786 110.807 301.786 113.048V116.711C301.786 117.112 301.92 117.262 302.254 117.262H302.605V118.5C302.505 118.517 302.288 118.533 302.07 118.533C301 118.533 300.515 118.115 300.398 117.129C299.963 118.048 298.742 118.701 297.438 118.701ZM297.572 117.463C299.344 117.463 300.381 116.326 300.381 114.854V114.219L297.505 114.754C296.301 114.971 295.916 115.423 295.916 116.159C295.916 116.995 296.535 117.463 297.572 117.463ZM307.437 118.701C304.962 118.701 303.373 116.878 303.373 114.068C303.373 111.259 304.962 109.436 307.437 109.436C309.477 109.436 310.899 110.54 311.2 112.513L309.728 112.613C309.528 111.443 308.641 110.774 307.437 110.774C305.798 110.774 304.845 112.011 304.845 114.068C304.845 116.125 305.798 117.363 307.437 117.363C308.641 117.363 309.528 116.694 309.728 115.356L311.2 115.456C310.899 117.43 309.477 118.701 307.437 118.701ZM316.219 118.701C313.711 118.701 312.155 116.878 312.155 114.068C312.155 111.259 313.711 109.436 316.152 109.436C318.46 109.436 320.066 111.108 320.066 114.085V114.503H313.627C313.727 116.41 314.681 117.363 316.219 117.363C317.373 117.363 318.126 116.777 318.427 115.874L319.932 115.991C319.463 117.58 318.092 118.701 316.219 118.701ZM313.627 113.266H318.527C318.393 111.56 317.457 110.774 316.152 110.774C314.781 110.774 313.861 111.627 313.627 113.266ZM329.089 118.701C326.781 118.701 325.343 116.911 325.343 114.068C325.343 111.225 326.781 109.436 329.089 109.436C330.276 109.436 331.33 109.971 331.815 110.874V106.626H333.219V118.5H331.948L331.898 117.162C331.396 118.132 330.326 118.701 329.089 118.701ZM329.373 117.363C330.945 117.363 331.815 116.092 331.815 114.068C331.815 112.011 330.945 110.774 329.373 110.774C327.818 110.774 326.814 112.011 326.814 114.068C326.814 116.092 327.818 117.363 329.373 117.363ZM339.005 118.701C336.496 118.701 334.941 116.878 334.941 114.068C334.941 111.259 336.496 109.436 338.938 109.436C341.246 109.436 342.851 111.108 342.851 114.085V114.503H336.413C336.513 116.41 337.466 117.363 339.005 117.363C340.159 117.363 340.911 116.777 341.212 115.874L342.718 115.991C342.249 117.58 340.878 118.701 339.005 118.701ZM336.413 113.266H341.313C341.179 111.56 340.242 110.774 338.938 110.774C337.567 110.774 336.647 111.627 336.413 113.266ZM347.798 118.701C345.423 118.701 344.102 117.446 343.968 115.707L345.44 115.607C345.607 116.677 346.293 117.363 347.798 117.363C349.002 117.363 349.788 116.995 349.788 116.125C349.788 115.423 349.437 115.122 347.53 114.787C344.988 114.336 344.186 113.55 344.186 112.145C344.186 110.573 345.39 109.436 347.53 109.436C349.688 109.436 350.825 110.74 351.092 112.279L349.621 112.379C349.42 111.443 348.718 110.774 347.513 110.774C346.242 110.774 345.657 111.326 345.657 112.078C345.657 112.948 346.226 113.282 347.798 113.55C350.507 114.018 351.26 114.721 351.26 116.125C351.26 117.764 349.754 118.701 347.798 118.701ZM352.959 108.249V106.61H354.431V108.249H352.959ZM352.993 118.5V109.637H354.398V118.5H352.993ZM360.09 121.209C358.183 121.209 356.745 120.189 356.377 118.634L357.849 118.533C358.117 119.37 358.719 119.871 360.09 119.871C361.695 119.871 362.582 119.236 362.582 117.931V116.493C362.147 117.43 361.143 118.032 359.99 118.032C357.732 118.032 356.126 116.259 356.126 113.734C356.126 111.209 357.698 109.436 359.923 109.436C361.16 109.436 362.247 110.055 362.649 111.041V109.637H363.986V117.898C363.986 119.972 362.531 121.209 360.09 121.209ZM360.056 116.694C361.578 116.694 362.565 115.557 362.582 113.734C362.615 111.911 361.595 110.774 360.056 110.774C358.501 110.774 357.598 111.911 357.598 113.734C357.598 115.557 358.535 116.694 360.056 116.694ZM366.474 118.5V109.637H367.762L367.795 111.225C368.263 110.005 369.3 109.436 370.521 109.436C372.545 109.436 373.515 110.924 373.515 112.797V118.5H372.11V113.199C372.11 111.56 371.558 110.673 370.22 110.673C368.849 110.673 367.879 111.56 367.879 113.199V118.5H366.474Z" fill="black"/>
<g opacity="0.4">
<rect x="406" y="93" width="155" height="40" rx="20" fill="#BDE3FF"/>
<path d="M443.334 118.5L447.616 106.626H449.556L453.837 118.5H452.265L451.077 115.122H446.094L444.906 118.5H443.334ZM446.579 113.717H450.592L448.586 107.881L446.579 113.717ZM456.737 118.5C455.7 118.5 454.998 117.998 454.998 116.828V106.626H456.403V116.711C456.403 117.079 456.587 117.262 456.955 117.262H457.724V118.5H456.737ZM462.536 121.209C460.629 121.209 459.191 120.189 458.823 118.634L460.295 118.533C460.563 119.37 461.165 119.871 462.536 119.871C464.141 119.871 465.028 119.236 465.028 117.931V116.493C464.593 117.43 463.59 118.032 462.436 118.032C460.178 118.032 458.572 116.259 458.572 113.734C458.572 111.209 460.144 109.436 462.369 109.436C463.606 109.436 464.693 110.055 465.095 111.041V109.637H466.432V117.898C466.432 119.972 464.978 121.209 462.536 121.209ZM462.502 116.694C464.024 116.694 465.011 115.557 465.028 113.734C465.061 111.911 464.041 110.774 462.502 110.774C460.947 110.774 460.044 111.911 460.044 113.734C460.044 115.557 460.981 116.694 462.502 116.694ZM472.219 118.701C469.76 118.701 468.155 116.895 468.155 114.068C468.155 111.242 469.76 109.436 472.219 109.436C474.66 109.436 476.266 111.242 476.266 114.068C476.266 116.895 474.66 118.701 472.219 118.701ZM472.219 117.363C473.841 117.363 474.794 116.125 474.794 114.068C474.794 112.011 473.841 110.774 472.219 110.774C470.58 110.774 469.626 112.011 469.626 114.068C469.626 116.125 470.58 117.363 472.219 117.363ZM477.996 118.5V109.637H479.234L479.284 111.275C479.602 110.155 480.304 109.637 481.391 109.637H482.261V110.974H481.408C480.07 110.974 479.401 111.694 479.401 113.149V118.5H477.996ZM483.609 108.249V106.61H485.081V108.249H483.609ZM483.642 118.5V109.637H485.047V118.5H483.642ZM490.116 118.5C488.511 118.5 487.758 117.798 487.758 116.226V110.874H486.454V109.637H487.758V107.563H489.163V109.637H491.521V110.874H489.163V116.192C489.163 116.995 489.514 117.262 490.25 117.262H491.521V118.5H490.116ZM493.139 118.5V106.626H494.543V111.025C494.995 109.938 495.998 109.436 497.219 109.436C499.126 109.436 500.179 110.824 500.179 112.797V118.5H498.775V113.199C498.775 111.493 498.156 110.673 496.918 110.673C495.48 110.673 494.543 111.577 494.543 113.215V118.5H493.139ZM502.345 118.5V109.637H503.633L503.666 111.192C504.101 110.105 505.021 109.436 506.158 109.436C507.496 109.436 508.433 110.105 508.817 111.292C509.202 110.105 510.105 109.436 511.409 109.436C513.299 109.436 514.336 110.657 514.336 112.797V118.5H512.931V113.098C512.931 111.493 512.296 110.673 511.075 110.673C509.837 110.673 509.035 111.61 509.035 113.199V118.5H507.63V113.199C507.63 111.627 507.112 110.673 505.807 110.673C504.57 110.673 503.75 111.627 503.75 113.199V118.5H502.345ZM519.859 118.701C517.484 118.701 516.163 117.446 516.029 115.707L517.501 115.607C517.668 116.677 518.354 117.363 519.859 117.363C521.063 117.363 521.849 116.995 521.849 116.125C521.849 115.423 521.498 115.122 519.591 114.787C517.049 114.336 516.246 113.55 516.246 112.145C516.246 110.573 517.45 109.436 519.591 109.436C521.748 109.436 522.886 110.74 523.153 112.279L521.682 112.379C521.481 111.443 520.778 110.774 519.574 110.774C518.303 110.774 517.718 111.326 517.718 112.078C517.718 112.948 518.287 113.282 519.859 113.55C522.568 114.018 523.32 114.721 523.32 116.125C523.32 117.764 521.815 118.701 519.859 118.701Z" fill="black"/>
</g>
<g opacity="0.4">
<rect x="575" y="93" width="155" height="40" rx="20" fill="#BDE3FF"/>
<path d="M607.619 118.768C604.876 118.768 603.12 117.112 602.92 114.704L604.425 114.603C604.659 116.376 605.746 117.363 607.653 117.363C609.308 117.363 610.278 116.711 610.278 115.49C610.278 114.386 609.726 113.717 606.883 113.015C604.141 112.329 603.171 111.51 603.171 109.737C603.171 107.747 604.676 106.359 607.117 106.359C609.726 106.359 611.265 107.964 611.532 110.138L610.027 110.239C609.827 108.8 608.857 107.764 607.084 107.764C605.612 107.764 604.676 108.533 604.676 109.67C604.676 110.791 605.278 111.192 607.786 111.811C610.763 112.546 611.783 113.684 611.783 115.389C611.783 117.463 610.044 118.768 607.619 118.768ZM617.541 118.701C615.083 118.701 613.478 116.895 613.478 114.068C613.478 111.242 615.083 109.436 617.541 109.436C619.983 109.436 621.588 111.242 621.588 114.068C621.588 116.895 619.983 118.701 617.541 118.701ZM617.541 117.363C619.164 117.363 620.117 116.125 620.117 114.068C620.117 112.011 619.164 110.774 617.541 110.774C615.903 110.774 614.949 112.011 614.949 114.068C614.949 116.125 615.903 117.363 617.541 117.363ZM626.781 118.701C624.306 118.701 622.717 116.878 622.717 114.068C622.717 111.259 624.306 109.436 626.781 109.436C628.821 109.436 630.242 110.54 630.543 112.513L629.072 112.613C628.871 111.443 627.985 110.774 626.781 110.774C625.142 110.774 624.189 112.011 624.189 114.068C624.189 116.125 625.142 117.363 626.781 117.363C627.985 117.363 628.871 116.694 629.072 115.356L630.543 115.456C630.242 117.43 628.821 118.701 626.781 118.701ZM632.068 108.249V106.61H633.539V108.249H632.068ZM632.101 118.5V109.637H633.506V118.5H632.101ZM639.298 118.701C636.79 118.701 635.234 116.878 635.234 114.068C635.234 111.259 636.79 109.436 639.231 109.436C641.539 109.436 643.145 111.108 643.145 114.085V114.503H636.706C636.806 116.41 637.76 117.363 639.298 117.363C640.452 117.363 641.205 116.777 641.506 115.874L643.011 115.991C642.543 117.58 641.171 118.701 639.298 118.701ZM636.706 113.266H641.606C641.472 111.56 640.536 110.774 639.231 110.774C637.86 110.774 636.94 111.627 636.706 113.266ZM647.765 118.5C646.159 118.5 645.407 117.798 645.407 116.226V110.874H644.102V109.637H645.407V107.563H646.812V109.637H649.17V110.874H646.812V116.192C646.812 116.995 647.163 117.262 647.899 117.262H649.17V118.5H647.765ZM653.114 118.701C651.274 118.701 650.12 117.814 650.12 116.293C650.12 114.787 650.973 113.951 652.913 113.583L656.057 112.998C656.057 111.51 655.355 110.774 653.95 110.774C652.712 110.774 652.027 111.342 651.759 112.363L650.271 112.245C650.605 110.573 651.943 109.436 653.95 109.436C656.224 109.436 657.462 110.807 657.462 113.048V116.711C657.462 117.112 657.596 117.262 657.93 117.262H658.281V118.5C658.181 118.517 657.963 118.533 657.746 118.533C656.676 118.533 656.191 118.115 656.074 117.129C655.639 118.048 654.418 118.701 653.114 118.701ZM653.247 117.463C655.02 117.463 656.057 116.326 656.057 114.854V114.219L653.181 114.754C651.976 114.971 651.592 115.423 651.592 116.159C651.592 116.995 652.211 117.463 653.247 117.463ZM661.325 118.5C660.288 118.5 659.586 117.998 659.586 116.828V106.626H660.991V116.711C660.991 117.079 661.175 117.262 661.542 117.262H662.312V118.5H661.325ZM669.597 118.5C668.56 118.5 667.857 117.998 667.857 116.828V106.626H669.262V116.711C669.262 117.079 669.446 117.262 669.814 117.262H670.583V118.5H669.597ZM675.496 118.701C673.037 118.701 671.432 116.895 671.432 114.068C671.432 111.242 673.037 109.436 675.496 109.436C677.937 109.436 679.543 111.242 679.543 114.068C679.543 116.895 677.937 118.701 675.496 118.701ZM675.496 117.363C677.118 117.363 678.071 116.125 678.071 114.068C678.071 112.011 677.118 110.774 675.496 110.774C673.857 110.774 672.903 112.011 672.903 114.068C672.903 116.125 673.857 117.363 675.496 117.363ZM684.635 121.209C682.728 121.209 681.29 120.189 680.922 118.634L682.394 118.533C682.661 119.37 683.263 119.871 684.635 119.871C686.24 119.871 687.126 119.236 687.126 117.931V116.493C686.691 117.43 685.688 118.032 684.534 118.032C682.277 118.032 680.671 116.259 680.671 113.734C680.671 111.209 682.243 109.436 684.467 109.436C685.705 109.436 686.792 110.055 687.193 111.041V109.637H688.531V117.898C688.531 119.972 687.076 121.209 684.635 121.209ZM684.601 116.694C686.123 116.694 687.11 115.557 687.126 113.734C687.16 111.911 686.14 110.774 684.601 110.774C683.046 110.774 682.143 111.911 682.143 113.734C682.143 115.557 683.079 116.694 684.601 116.694ZM690.74 108.249V106.61H692.212V108.249H690.74ZM690.774 118.5V109.637H692.178V118.5H690.774ZM697.971 118.701C695.496 118.701 693.907 116.878 693.907 114.068C693.907 111.259 695.496 109.436 697.971 109.436C700.011 109.436 701.433 110.54 701.734 112.513L700.262 112.613C700.061 111.443 699.175 110.774 697.971 110.774C696.332 110.774 695.379 112.011 695.379 114.068C695.379 116.125 696.332 117.363 697.971 117.363C699.175 117.363 700.061 116.694 700.262 115.356L701.734 115.456C701.433 117.43 700.011 118.701 697.971 118.701Z" fill="black" fill-opacity="0.8"/>
</g>
<g opacity="0.4">
<rect x="742" y="93" width="154" height="40" rx="20" fill="#BDE3FF"/>
<path d="M777.539 118.5V106.626H781.803C784.445 106.626 786.001 107.964 786.001 110.222C786.001 112.513 784.445 113.884 781.803 113.884H778.977V118.5H777.539ZM778.977 112.48H781.803C783.592 112.48 784.495 111.71 784.495 110.222C784.495 108.767 783.592 108.031 781.803 108.031H778.977V112.48ZM790.785 118.701C788.41 118.701 787.089 117.446 786.955 115.707L788.427 115.607C788.594 116.677 789.28 117.363 790.785 117.363C791.989 117.363 792.775 116.995 792.775 116.125C792.775 115.423 792.424 115.122 790.517 114.787C787.975 114.336 787.172 113.55 787.172 112.145C787.172 110.573 788.376 109.436 790.517 109.436C792.674 109.436 793.812 110.74 794.079 112.279L792.608 112.379C792.407 111.443 791.704 110.774 790.5 110.774C789.229 110.774 788.644 111.326 788.644 112.078C788.644 112.948 789.213 113.282 790.785 113.55C793.494 114.018 794.246 114.721 794.246 116.125C794.246 117.764 792.741 118.701 790.785 118.701ZM796.103 121.009V119.771H797.123C797.742 119.771 797.993 119.587 798.16 119.169L798.478 118.333H797.993L794.749 109.637H796.287L798.929 117.028L801.455 109.637H802.993L799.398 119.62C799.063 120.574 798.444 121.009 797.257 121.009H796.103ZM807.538 118.701C805.063 118.701 803.474 116.878 803.474 114.068C803.474 111.259 805.063 109.436 807.538 109.436C809.578 109.436 810.999 110.54 811.3 112.513L809.829 112.613C809.628 111.443 808.742 110.774 807.538 110.774C805.899 110.774 804.945 112.011 804.945 114.068C804.945 116.125 805.899 117.363 807.538 117.363C808.742 117.363 809.628 116.694 809.829 115.356L811.3 115.456C810.999 117.43 809.578 118.701 807.538 118.701ZM812.858 118.5V106.626H814.263V111.025C814.714 109.938 815.718 109.436 816.938 109.436C818.845 109.436 819.898 110.824 819.898 112.797V118.5H818.494V113.199C818.494 111.493 817.875 110.673 816.637 110.673C815.199 110.673 814.263 111.577 814.263 113.215V118.5H812.858ZM825.657 118.701C823.199 118.701 821.593 116.895 821.593 114.068C821.593 111.242 823.199 109.436 825.657 109.436C828.098 109.436 829.704 111.242 829.704 114.068C829.704 116.895 828.098 118.701 825.657 118.701ZM825.657 117.363C827.279 117.363 828.232 116.125 828.232 114.068C828.232 112.011 827.279 110.774 825.657 110.774C824.018 110.774 823.065 112.011 823.065 114.068C823.065 116.125 824.018 117.363 825.657 117.363ZM833.255 118.5C832.218 118.5 831.516 117.998 831.516 116.828V106.626H832.921V116.711C832.921 117.079 833.105 117.262 833.473 117.262H834.242V118.5H833.255ZM839.154 118.701C836.696 118.701 835.091 116.895 835.091 114.068C835.091 111.242 836.696 109.436 839.154 109.436C841.596 109.436 843.201 111.242 843.201 114.068C843.201 116.895 841.596 118.701 839.154 118.701ZM839.154 117.363C840.777 117.363 841.73 116.125 841.73 114.068C841.73 112.011 840.777 110.774 839.154 110.774C837.515 110.774 836.562 112.011 836.562 114.068C836.562 116.125 837.515 117.363 839.154 117.363ZM848.293 121.209C846.387 121.209 844.949 120.189 844.581 118.634L846.052 118.533C846.32 119.37 846.922 119.871 848.293 119.871C849.899 119.871 850.785 119.236 850.785 117.931V116.493C850.35 117.43 849.347 118.032 848.193 118.032C845.935 118.032 844.33 116.259 844.33 113.734C844.33 111.209 845.902 109.436 848.126 109.436C849.364 109.436 850.451 110.055 850.852 111.041V109.637H852.19V117.898C852.19 119.972 850.735 121.209 848.293 121.209ZM848.26 116.694C849.782 116.694 850.768 115.557 850.785 113.734C850.819 111.911 849.798 110.774 848.26 110.774C846.705 110.774 845.802 111.911 845.802 113.734C845.802 115.557 846.738 116.694 848.26 116.694ZM854.735 121.009V119.771H855.756C856.374 119.771 856.625 119.587 856.792 119.169L857.11 118.333H856.625L853.381 109.637H854.919L857.562 117.028L860.087 109.637H861.626L858.03 119.62C857.696 120.574 857.077 121.009 855.889 121.009H854.735Z" fill="black" fill-opacity="0.8"/>
</g>
<g opacity="0.4">
<rect x="913" y="93" width="155" height="40" rx="20" fill="#BDE3FF"/>
<path d="M931.587 118.768C928.41 118.768 926.253 116.426 926.253 112.58C926.253 108.734 928.41 106.359 931.587 106.359C934.464 106.359 935.986 107.914 936.487 110.406L934.965 110.506C934.631 108.817 933.561 107.764 931.587 107.764C929.313 107.764 927.758 109.57 927.758 112.58C927.758 115.59 929.313 117.363 931.587 117.363C933.661 117.363 934.765 116.209 935.066 114.353L936.588 114.453C936.153 117.028 934.43 118.768 931.587 118.768ZM940.739 118.701C938.899 118.701 937.745 117.814 937.745 116.293C937.745 114.787 938.598 113.951 940.538 113.583L943.682 112.998C943.682 111.51 942.98 110.774 941.575 110.774C940.337 110.774 939.652 111.342 939.384 112.363L937.896 112.245C938.23 110.573 939.568 109.436 941.575 109.436C943.849 109.436 945.087 110.807 945.087 113.048V116.711C945.087 117.112 945.221 117.262 945.555 117.262H945.906V118.5C945.806 118.517 945.588 118.533 945.371 118.533C944.301 118.533 943.816 118.115 943.699 117.129C943.264 118.048 942.043 118.701 940.739 118.701ZM940.872 117.463C942.645 117.463 943.682 116.326 943.682 114.854V114.219L940.806 114.754C939.601 114.971 939.217 115.423 939.217 116.159C939.217 116.995 939.836 117.463 940.872 117.463ZM947.309 121.009V109.637H948.613L948.63 110.991C949.165 109.971 950.152 109.436 951.356 109.436C953.998 109.436 955.186 111.627 955.186 114.068C955.186 116.51 953.998 118.701 951.356 118.701C950.202 118.701 949.182 118.182 948.714 117.329V121.009H947.309ZM951.222 117.363C952.761 117.363 953.714 116.142 953.714 114.068C953.714 111.995 952.761 110.774 951.222 110.774C949.684 110.774 948.714 111.894 948.714 114.068C948.714 116.242 949.667 117.363 951.222 117.363ZM956.874 108.249V106.61H958.346V108.249H956.874ZM956.907 118.5V109.637H958.312V118.5H956.907ZM963.381 118.5C961.776 118.5 961.023 117.798 961.023 116.226V110.874H959.719V109.637H961.023V107.563H962.428V109.637H964.786V110.874H962.428V116.192C962.428 116.995 962.779 117.262 963.515 117.262H964.786V118.5H963.381ZM968.73 118.701C966.89 118.701 965.736 117.814 965.736 116.293C965.736 114.787 966.589 113.951 968.529 113.583L971.673 112.998C971.673 111.51 970.971 110.774 969.566 110.774C968.329 110.774 967.643 111.342 967.375 112.363L965.887 112.245C966.221 110.573 967.559 109.436 969.566 109.436C971.84 109.436 973.078 110.807 973.078 113.048V116.711C973.078 117.112 973.212 117.262 973.546 117.262H973.897V118.5C973.797 118.517 973.58 118.533 973.362 118.533C972.292 118.533 971.807 118.115 971.69 117.129C971.255 118.048 970.034 118.701 968.73 118.701ZM968.864 117.463C970.636 117.463 971.673 116.326 971.673 114.854V114.219L968.797 114.754C967.593 114.971 967.208 115.423 967.208 116.159C967.208 116.995 967.827 117.463 968.864 117.463ZM976.941 118.5C975.904 118.5 975.202 117.998 975.202 116.828V106.626H976.607V116.711C976.607 117.079 976.791 117.262 977.159 117.262H977.928V118.5H976.941ZM979.313 108.249V106.61H980.784V108.249H979.313ZM979.346 118.5V109.637H980.751V118.5H979.346ZM986.309 118.701C983.934 118.701 982.613 117.446 982.48 115.707L983.951 115.607C984.118 116.677 984.804 117.363 986.309 117.363C987.513 117.363 988.299 116.995 988.299 116.125C988.299 115.423 987.948 115.122 986.042 114.787C983.5 114.336 982.697 113.55 982.697 112.145C982.697 110.573 983.901 109.436 986.042 109.436C988.199 109.436 989.336 110.74 989.604 112.279L988.132 112.379C987.931 111.443 987.229 110.774 986.025 110.774C984.754 110.774 984.169 111.326 984.169 112.078C984.169 112.948 984.737 113.282 986.309 113.55C989.018 114.018 989.771 114.721 989.771 116.125C989.771 117.764 988.266 118.701 986.309 118.701ZM994.406 118.5C992.8 118.5 992.048 117.798 992.048 116.226V110.874H990.743V109.637H992.048V107.563H993.452V109.637H995.81V110.874H993.452V116.192C993.452 116.995 993.804 117.262 994.539 117.262H995.81V118.5H994.406ZM1004.75 118.701C1002.38 118.701 1001.05 117.446 1000.92 115.707L1002.39 115.607C1002.56 116.677 1003.25 117.363 1004.75 117.363C1005.95 117.363 1006.74 116.995 1006.74 116.125C1006.74 115.423 1006.39 115.122 1004.48 114.787C1001.94 114.336 1001.14 113.55 1001.14 112.145C1001.14 110.573 1002.34 109.436 1004.48 109.436C1006.64 109.436 1007.78 110.74 1008.05 112.279L1006.57 112.379C1006.37 111.443 1005.67 110.774 1004.47 110.774C1003.2 110.774 1002.61 111.326 1002.61 112.078C1002.61 112.948 1003.18 113.282 1004.75 113.55C1007.46 114.018 1008.21 114.721 1008.21 116.125C1008.21 117.764 1006.71 118.701 1004.75 118.701ZM1010.07 121.009V119.771H1011.09C1011.71 119.771 1011.96 119.587 1012.13 119.169L1012.44 118.333H1011.96L1008.71 109.637H1010.25L1012.9 117.028L1015.42 109.637H1016.96L1013.36 119.62C1013.03 120.574 1012.41 121.009 1011.22 121.009H1010.07ZM1021.27 118.701C1018.89 118.701 1017.57 117.446 1017.44 115.707L1018.91 115.607C1019.08 116.677 1019.76 117.363 1021.27 117.363C1022.47 117.363 1023.26 116.995 1023.26 116.125C1023.26 115.423 1022.91 115.122 1021 114.787C1018.46 114.336 1017.66 113.55 1017.66 112.145C1017.66 110.573 1018.86 109.436 1021 109.436C1023.16 109.436 1024.3 110.74 1024.56 112.279L1023.09 112.379C1022.89 111.443 1022.19 110.774 1020.99 110.774C1019.71 110.774 1019.13 111.326 1019.13 112.078C1019.13 112.948 1019.7 113.282 1021.27 113.55C1023.98 114.018 1024.73 114.721 1024.73 116.125C1024.73 117.764 1023.23 118.701 1021.27 118.701ZM1029.37 118.5C1027.76 118.5 1027.01 117.798 1027.01 116.226V110.874H1025.7V109.637H1027.01V107.563H1028.41V109.637H1030.77V110.874H1028.41V116.192C1028.41 116.995 1028.76 117.262 1029.5 117.262H1030.77V118.5H1029.37ZM1035.69 118.701C1033.18 118.701 1031.62 116.878 1031.62 114.068C1031.62 111.259 1033.18 109.436 1035.62 109.436C1037.93 109.436 1039.53 111.108 1039.53 114.085V114.503H1033.09C1033.2 116.41 1034.15 117.363 1035.69 117.363C1036.84 117.363 1037.59 116.777 1037.89 115.874L1039.4 115.991C1038.93 117.58 1037.56 118.701 1035.69 118.701ZM1033.09 113.266H1037.99C1037.86 111.56 1036.92 110.774 1035.62 110.774C1034.25 110.774 1033.33 111.627 1033.09 113.266ZM1041.25 118.5V109.637H1042.54L1042.57 111.192C1043.01 110.105 1043.93 109.436 1045.07 109.436C1046.4 109.436 1047.34 110.105 1047.72 111.292C1048.11 110.105 1049.01 109.436 1050.32 109.436C1052.21 109.436 1053.24 110.657 1053.24 112.797V118.5H1051.84V113.098C1051.84 111.493 1051.2 110.673 1049.98 110.673C1048.74 110.673 1047.94 111.61 1047.94 113.199V118.5H1046.54V113.199C1046.54 111.627 1046.02 110.673 1044.71 110.673C1043.48 110.673 1042.66 111.627 1042.66 113.199V118.5H1041.25Z" fill="black" fill-opacity="0.8"/>
</g>
<path d="M315 133L315 181" stroke="#888888" stroke-width="2"/>
<path d="M476 166L476 181" stroke="#888888" stroke-width="2"/>
<path d="M637 166L637 181" stroke="#888888" stroke-width="2"/>
<path d="M798 181V167H154V181" stroke="#888888" stroke-width="2"/>
<rect x="79" y="181" width="150" height="40" rx="8" fill="#AFF4C6"/>
<path d="M114.319 206V195.823H120.712V197.027H115.552V200.309H120.54V201.485H115.552V204.796H120.827V206H114.319ZM122.626 206V198.403H123.73L123.758 199.765C124.16 198.718 125.049 198.231 126.095 198.231C127.829 198.231 128.661 199.507 128.661 201.112V206H127.457V201.456C127.457 200.051 126.984 199.292 125.837 199.292C124.662 199.292 123.83 200.051 123.83 201.456V206H122.626ZM133.511 208.322C131.877 208.322 130.644 207.448 130.328 206.115L131.59 206.029C131.819 206.745 132.335 207.175 133.511 207.175C134.887 207.175 135.646 206.631 135.646 205.513V204.28C135.274 205.083 134.414 205.599 133.425 205.599C131.49 205.599 130.113 204.079 130.113 201.915C130.113 199.75 131.461 198.231 133.367 198.231C134.428 198.231 135.36 198.761 135.704 199.607V198.403H136.851V205.484C136.851 207.261 135.603 208.322 133.511 208.322ZM133.482 204.452C134.786 204.452 135.632 203.477 135.646 201.915C135.675 200.352 134.801 199.378 133.482 199.378C132.149 199.378 131.375 200.352 131.375 201.915C131.375 203.477 132.178 204.452 133.482 204.452ZM141.033 206.172C139.456 206.172 138.467 205.412 138.467 204.108C138.467 202.818 139.198 202.101 140.861 201.786L143.555 201.284C143.555 200.008 142.953 199.378 141.749 199.378C140.689 199.378 140.101 199.865 139.872 200.739L138.596 200.639C138.882 199.206 140.029 198.231 141.749 198.231C143.699 198.231 144.76 199.406 144.76 201.327V204.466C144.76 204.81 144.874 204.939 145.161 204.939H145.462V206C145.376 206.014 145.19 206.029 145.003 206.029C144.086 206.029 143.67 205.67 143.57 204.825C143.197 205.613 142.151 206.172 141.033 206.172ZM141.147 205.111C142.667 205.111 143.555 204.137 143.555 202.875V202.33L141.09 202.789C140.058 202.975 139.728 203.362 139.728 203.993C139.728 204.71 140.259 205.111 141.147 205.111ZM149.517 208.322C147.883 208.322 146.651 207.448 146.335 206.115L147.597 206.029C147.826 206.745 148.342 207.175 149.517 207.175C150.894 207.175 151.653 206.631 151.653 205.513V204.28C151.281 205.083 150.42 205.599 149.431 205.599C147.496 205.599 146.12 204.079 146.12 201.915C146.12 199.75 147.468 198.231 149.374 198.231C150.435 198.231 151.367 198.761 151.711 199.607V198.403H152.857V205.484C152.857 207.261 151.61 208.322 149.517 208.322ZM149.489 204.452C150.793 204.452 151.639 203.477 151.653 201.915C151.682 200.352 150.808 199.378 149.489 199.378C148.156 199.378 147.382 200.352 147.382 201.915C147.382 203.477 148.184 204.452 149.489 204.452ZM157.817 206.172C155.667 206.172 154.334 204.61 154.334 202.201C154.334 199.793 155.667 198.231 157.759 198.231C159.738 198.231 161.114 199.664 161.114 202.216V202.574H155.595C155.681 204.208 156.498 205.025 157.817 205.025C158.806 205.025 159.451 204.524 159.709 203.75L160.999 203.85C160.598 205.212 159.422 206.172 157.817 206.172ZM155.595 201.513H159.795C159.68 200.051 158.878 199.378 157.759 199.378C156.584 199.378 155.796 200.109 155.595 201.513ZM162.587 206V198.403H163.691L163.719 199.736C164.092 198.804 164.88 198.231 165.855 198.231C167.002 198.231 167.805 198.804 168.134 199.822C168.464 198.804 169.238 198.231 170.356 198.231C171.976 198.231 172.865 199.277 172.865 201.112V206H171.661V201.37C171.661 199.994 171.116 199.292 170.07 199.292C169.009 199.292 168.321 200.094 168.321 201.456V206H167.117V201.456C167.117 200.109 166.672 199.292 165.554 199.292C164.493 199.292 163.791 200.109 163.791 201.456V206H162.587ZM177.799 206.172C175.649 206.172 174.316 204.61 174.316 202.201C174.316 199.793 175.649 198.231 177.742 198.231C179.72 198.231 181.096 199.664 181.096 202.216V202.574H175.577C175.663 204.208 176.48 205.025 177.799 205.025C178.788 205.025 179.433 204.524 179.691 203.75L180.981 203.85C180.58 205.212 179.405 206.172 177.799 206.172ZM175.577 201.513H179.777C179.663 200.051 178.86 199.378 177.742 199.378C176.566 199.378 175.778 200.109 175.577 201.513ZM182.569 206V198.403H183.673L183.702 199.765C184.103 198.718 184.992 198.231 186.038 198.231C187.773 198.231 188.604 199.507 188.604 201.112V206H187.4V201.456C187.4 200.051 186.927 199.292 185.78 199.292C184.605 199.292 183.773 200.051 183.773 201.456V206H182.569ZM192.948 206C191.571 206 190.926 205.398 190.926 204.051V199.464H189.808V198.403H190.926V196.625H192.131V198.403H194.152V199.464H192.131V204.022C192.131 204.71 192.432 204.939 193.062 204.939H194.152V206H192.948Z" fill="black"/>
<g opacity="0.5">
<rect x="240" y="181" width="150" height="40" rx="8" fill="#AFF4C6"/>
<path d="M275.819 206V195.823H277.052V200.281H282.169V195.823H283.402V206H282.169V201.485H277.052V206H275.819ZM287.618 206.172C286.041 206.172 285.052 205.412 285.052 204.108C285.052 202.818 285.783 202.101 287.446 201.786L290.141 201.284C290.141 200.008 289.539 199.378 288.334 199.378C287.274 199.378 286.686 199.865 286.457 200.739L285.181 200.639C285.468 199.206 286.614 198.231 288.334 198.231C290.284 198.231 291.345 199.406 291.345 201.327V204.466C291.345 204.81 291.459 204.939 291.746 204.939H292.047V206C291.961 206.014 291.775 206.029 291.588 206.029C290.671 206.029 290.255 205.67 290.155 204.825C289.782 205.613 288.736 206.172 287.618 206.172ZM287.732 205.111C289.252 205.111 290.141 204.137 290.141 202.875V202.33L287.675 202.789C286.643 202.975 286.313 203.362 286.313 203.993C286.313 204.71 286.844 205.111 287.732 205.111ZM295.652 206C294.276 206 293.631 205.398 293.631 204.051V199.464H292.513V198.403H293.631V196.625H294.835V198.403H296.856V199.464H294.835V204.022C294.835 204.71 295.136 204.939 295.767 204.939H296.856V206H295.652ZM301.07 206.172C298.92 206.172 297.587 204.61 297.587 202.201C297.587 199.793 298.92 198.231 301.013 198.231C302.991 198.231 304.367 199.664 304.367 202.216V202.574H298.848C298.934 204.208 299.752 205.025 301.07 205.025C302.059 205.025 302.704 204.524 302.962 203.75L304.253 203.85C303.851 205.212 302.676 206.172 301.07 206.172ZM298.848 201.513H303.048C302.934 200.051 302.131 199.378 301.013 199.378C299.838 199.378 299.049 200.109 298.848 201.513ZM312.173 206.172C310.137 206.172 309.005 205.097 308.89 203.606L310.152 203.52C310.295 204.438 310.883 205.025 312.173 205.025C313.205 205.025 313.879 204.71 313.879 203.965C313.879 203.362 313.578 203.104 311.944 202.818C309.765 202.431 309.077 201.757 309.077 200.553C309.077 199.206 310.109 198.231 311.944 198.231C313.793 198.231 314.767 199.349 314.997 200.668L313.735 200.754C313.563 199.951 312.961 199.378 311.929 199.378C310.84 199.378 310.338 199.851 310.338 200.496C310.338 201.241 310.825 201.528 312.173 201.757C314.495 202.158 315.14 202.76 315.14 203.965C315.14 205.369 313.85 206.172 312.173 206.172ZM316.626 208.15V198.403H317.744L317.758 199.564C318.217 198.689 319.063 198.231 320.095 198.231C322.36 198.231 323.377 200.109 323.377 202.201C323.377 204.294 322.36 206.172 320.095 206.172C319.106 206.172 318.231 205.728 317.83 204.997V208.15H316.626ZM319.98 205.025C321.299 205.025 322.116 203.979 322.116 202.201C322.116 200.424 321.299 199.378 319.98 199.378C318.661 199.378 317.83 200.338 317.83 202.201C317.83 204.065 318.647 205.025 319.98 205.025ZM327.82 206.172C325.67 206.172 324.337 204.61 324.337 202.201C324.337 199.793 325.67 198.231 327.763 198.231C329.741 198.231 331.117 199.664 331.117 202.216V202.574H325.599C325.685 204.208 326.502 205.025 327.82 205.025C328.809 205.025 329.455 204.524 329.713 203.75L331.003 203.85C330.601 205.212 329.426 206.172 327.82 206.172ZM325.599 201.513H329.799C329.684 200.051 328.881 199.378 327.763 199.378C326.588 199.378 325.799 200.109 325.599 201.513ZM335.558 206.172C333.408 206.172 332.075 204.61 332.075 202.201C332.075 199.793 333.408 198.231 335.5 198.231C337.479 198.231 338.855 199.664 338.855 202.216V202.574H333.336C333.422 204.208 334.239 205.025 335.558 205.025C336.547 205.025 337.192 204.524 337.45 203.75L338.74 203.85C338.339 205.212 337.163 206.172 335.558 206.172ZM333.336 201.513H337.536C337.421 200.051 336.619 199.378 335.5 199.378C334.325 199.378 333.537 200.109 333.336 201.513ZM343.295 206.172C341.174 206.172 339.812 204.61 339.812 202.201C339.812 199.793 341.174 198.231 343.295 198.231C345.044 198.231 346.262 199.177 346.52 200.868L345.259 200.954C345.087 199.951 344.327 199.378 343.295 199.378C341.89 199.378 341.073 200.438 341.073 202.201C341.073 203.965 341.89 205.025 343.295 205.025C344.327 205.025 345.087 204.452 345.259 203.305L346.52 203.391C346.262 205.083 345.044 206.172 343.295 206.172ZM347.855 206V195.823H349.06V199.593C349.447 198.661 350.307 198.231 351.353 198.231C352.987 198.231 353.89 199.421 353.89 201.112V206H352.686V201.456C352.686 199.994 352.156 199.292 351.095 199.292C349.862 199.292 349.06 200.066 349.06 201.47V206H347.855Z" fill="black"/>
</g>
<g opacity="0.5">
<rect x="401" y="181" width="150" height="40" rx="8" fill="#AFF4C6"/>
<path d="M431.34 206V197.027H428.172V195.823H435.741V197.027H432.573V206H431.34ZM436.184 206V198.403H437.245L437.288 199.808C437.56 198.847 438.162 198.403 439.094 198.403H439.839V199.55H439.108C437.962 199.55 437.388 200.166 437.388 201.413V206H436.184ZM443.672 206.172C442.153 206.172 441.178 205.097 441.178 203.291V198.403H442.382V202.961C442.382 204.438 442.898 205.111 443.987 205.111C445.192 205.111 445.923 204.294 445.923 202.932V198.403H447.127V206H445.98V204.767C445.564 205.67 444.762 206.172 443.672 206.172ZM451.892 206.172C449.856 206.172 448.724 205.097 448.609 203.606L449.871 203.52C450.014 204.438 450.602 205.025 451.892 205.025C452.924 205.025 453.598 204.71 453.598 203.965C453.598 203.362 453.297 203.104 451.663 202.818C449.484 202.431 448.796 201.757 448.796 200.553C448.796 199.206 449.828 198.231 451.663 198.231C453.512 198.231 454.486 199.349 454.716 200.668L453.454 200.754C453.282 199.951 452.68 199.378 451.648 199.378C450.559 199.378 450.057 199.851 450.057 200.496C450.057 201.241 450.544 201.528 451.892 201.757C454.214 202.158 454.859 202.76 454.859 203.965C454.859 205.369 453.569 206.172 451.892 206.172ZM458.832 206C457.456 206 456.811 205.398 456.811 204.051V199.464H455.692V198.403H456.811V196.625H458.015V198.403H460.036V199.464H458.015V204.022C458.015 204.71 458.316 204.939 458.946 204.939H460.036V206H458.832ZM466.982 206.172C465.405 206.172 464.416 205.412 464.416 204.108C464.416 202.818 465.147 202.101 466.81 201.786L469.505 201.284C469.505 200.008 468.903 199.378 467.699 199.378C466.638 199.378 466.051 199.865 465.821 200.739L464.545 200.639C464.832 199.206 465.979 198.231 467.699 198.231C469.648 198.231 470.709 199.406 470.709 201.327V204.466C470.709 204.81 470.824 204.939 471.111 204.939H471.412V206C471.326 206.014 471.139 206.029 470.953 206.029C470.035 206.029 469.62 205.67 469.519 204.825C469.147 205.613 468.1 206.172 466.982 206.172ZM467.097 205.111C468.616 205.111 469.505 204.137 469.505 202.875V202.33L467.04 202.789C466.008 202.975 465.678 203.362 465.678 203.993C465.678 204.71 466.208 205.111 467.097 205.111ZM472.614 206V198.403H473.718L473.746 199.765C474.148 198.718 475.036 198.231 476.083 198.231C477.817 198.231 478.649 199.507 478.649 201.112V206H477.445V201.456C477.445 200.051 476.972 199.292 475.825 199.292C474.649 199.292 473.818 200.051 473.818 201.456V206H472.614ZM483.312 206.172C481.334 206.172 480.101 204.638 480.101 202.201C480.101 199.765 481.334 198.231 483.312 198.231C484.33 198.231 485.233 198.689 485.649 199.464V195.823H486.853V206H485.763L485.72 204.853C485.29 205.685 484.373 206.172 483.312 206.172ZM483.556 205.025C484.903 205.025 485.649 203.936 485.649 202.201C485.649 200.438 484.903 199.378 483.556 199.378C482.223 199.378 481.363 200.438 481.363 202.201C481.363 203.936 482.223 205.025 483.556 205.025ZM495.191 206C493.815 206 493.17 205.398 493.17 204.051V199.464H492.052V198.403H493.17V196.625H494.374V198.403H496.395V199.464H494.374V204.022C494.374 204.71 494.675 204.939 495.306 204.939H496.395V206H495.191ZM497.936 206V198.403H498.997L499.04 199.808C499.312 198.847 499.914 198.403 500.846 198.403H501.591V199.55H500.86C499.714 199.55 499.14 200.166 499.14 201.413V206H497.936ZM505.424 206.172C503.905 206.172 502.93 205.097 502.93 203.291V198.403H504.134V202.961C504.134 204.438 504.65 205.111 505.739 205.111C506.943 205.111 507.675 204.294 507.675 202.932V198.403H508.879V206H507.732V204.767C507.316 205.67 506.513 206.172 505.424 206.172ZM513.392 206C512.016 206 511.371 205.398 511.371 204.051V199.464H510.253V198.403H511.371V196.625H512.575V198.403H514.596V199.464H512.575V204.022C512.575 204.71 512.876 204.939 513.507 204.939H514.596V206H513.392ZM515.983 206V195.823H517.187V199.593C517.574 198.661 518.434 198.231 519.481 198.231C521.115 198.231 522.018 199.421 522.018 201.112V206H520.814V201.456C520.814 199.994 520.283 199.292 519.223 199.292C517.99 199.292 517.187 200.066 517.187 201.47V206H515.983Z" fill="black"/>
</g>
<g opacity="0.5">
<rect x="562" y="181" width="150" height="40" rx="8" fill="#AFF4C6"/>
<path d="M585.218 206.229C582.494 206.229 580.645 204.223 580.645 200.926C580.645 197.629 582.494 195.593 585.218 195.593C587.683 195.593 588.988 196.926 589.418 199.062L588.113 199.148C587.827 197.7 586.909 196.797 585.218 196.797C583.268 196.797 581.935 198.345 581.935 200.926C581.935 203.506 583.268 205.025 585.218 205.025C586.995 205.025 587.941 204.036 588.199 202.445L589.504 202.531C589.131 204.739 587.655 206.229 585.218 206.229ZM593.923 206.172C591.816 206.172 590.44 204.624 590.44 202.201C590.44 199.779 591.816 198.231 593.923 198.231C596.016 198.231 597.392 199.779 597.392 202.201C597.392 204.624 596.016 206.172 593.923 206.172ZM593.923 205.025C595.314 205.025 596.131 203.965 596.131 202.201C596.131 200.438 595.314 199.378 593.923 199.378C592.518 199.378 591.701 200.438 591.701 202.201C591.701 203.965 592.518 205.025 593.923 205.025ZM598.875 206V198.403H599.979L600.008 199.765C600.409 198.718 601.298 198.231 602.344 198.231C604.079 198.231 604.91 199.507 604.91 201.112V206H603.706V201.456C603.706 200.051 603.233 199.292 602.086 199.292C600.911 199.292 600.079 200.051 600.079 201.456V206H598.875ZM609.254 206C607.878 206 607.232 205.398 607.232 204.051V199.464H606.114V198.403H607.232V196.625H608.437V198.403H610.458V199.464H608.437V204.022C608.437 204.71 608.738 204.939 609.368 204.939H610.458V206H609.254ZM614.672 206.172C612.521 206.172 611.188 204.61 611.188 202.201C611.188 199.793 612.521 198.231 614.614 198.231C616.592 198.231 617.969 199.664 617.969 202.216V202.574H612.45C612.536 204.208 613.353 205.025 614.672 205.025C615.661 205.025 616.306 204.524 616.564 203.75L617.854 203.85C617.453 205.212 616.277 206.172 614.672 206.172ZM612.45 201.513H616.65C616.535 200.051 615.732 199.378 614.614 199.378C613.439 199.378 612.651 200.109 612.45 201.513ZM619.442 206V198.403H620.546L620.574 199.765C620.976 198.718 621.864 198.231 622.911 198.231C624.645 198.231 625.477 199.507 625.477 201.112V206H624.273V201.456C624.273 200.051 623.799 199.292 622.653 199.292C621.477 199.292 620.646 200.051 620.646 201.456V206H619.442ZM629.82 206C628.444 206 627.799 205.398 627.799 204.051V199.464H626.681V198.403H627.799V196.625H629.003V198.403H631.024V199.464H629.003V204.022C629.003 204.71 629.304 204.939 629.935 204.939H631.024V206H629.82ZM638.687 206.172C636.652 206.172 635.519 205.097 635.405 203.606L636.666 203.52C636.81 204.438 637.397 205.025 638.687 205.025C639.719 205.025 640.393 204.71 640.393 203.965C640.393 203.362 640.092 203.104 638.458 202.818C636.279 202.431 635.591 201.757 635.591 200.553C635.591 199.206 636.623 198.231 638.458 198.231C640.307 198.231 641.282 199.349 641.511 200.668L640.25 200.754C640.078 199.951 639.476 199.378 638.444 199.378C637.354 199.378 636.853 199.851 636.853 200.496C636.853 201.241 637.34 201.528 638.687 201.757C641.01 202.158 641.655 202.76 641.655 203.965C641.655 205.369 640.365 206.172 638.687 206.172ZM645.627 206C644.251 206 643.606 205.398 643.606 204.051V199.464H642.488V198.403H643.606V196.625H644.81V198.403H646.831V199.464H644.81V204.022C644.81 204.71 645.111 204.939 645.742 204.939H646.831V206H645.627ZM648.372 206V198.403H649.433L649.476 199.808C649.748 198.847 650.35 198.403 651.282 198.403H652.027V199.55H651.296C650.149 199.55 649.576 200.166 649.576 201.413V206H648.372ZM655.86 206.172C654.34 206.172 653.366 205.097 653.366 203.291V198.403H654.57V202.961C654.57 204.438 655.086 205.111 656.175 205.111C657.379 205.111 658.11 204.294 658.11 202.932V198.403H659.315V206H658.168V204.767C657.752 205.67 656.949 206.172 655.86 206.172ZM664.28 206.172C662.159 206.172 660.797 204.61 660.797 202.201C660.797 199.793 662.159 198.231 664.28 198.231C666.029 198.231 667.248 199.177 667.506 200.868L666.244 200.954C666.072 199.951 665.312 199.378 664.28 199.378C662.876 199.378 662.059 200.438 662.059 202.201C662.059 203.965 662.876 205.025 664.28 205.025C665.312 205.025 666.072 204.452 666.244 203.305L667.506 203.391C667.248 205.083 666.029 206.172 664.28 206.172ZM671.327 206C669.951 206 669.306 205.398 669.306 204.051V199.464H668.188V198.403H669.306V196.625H670.51V198.403H672.532V199.464H670.51V204.022C670.51 204.71 670.811 204.939 671.442 204.939H672.532V206H671.327ZM676.412 206.172C674.893 206.172 673.918 205.097 673.918 203.291V198.403H675.122V202.961C675.122 204.438 675.638 205.111 676.728 205.111C677.932 205.111 678.663 204.294 678.663 202.932V198.403H679.867V206H678.72V204.767C678.305 205.67 677.502 206.172 676.412 206.172ZM682.006 206V198.403H683.066L683.109 199.808C683.382 198.847 683.984 198.403 684.916 198.403H685.661V199.55H684.93C683.783 199.55 683.21 200.166 683.21 201.413V206H682.006ZM689.673 206.172C687.522 206.172 686.189 204.61 686.189 202.201C686.189 199.793 687.522 198.231 689.615 198.231C691.593 198.231 692.97 199.664 692.97 202.216V202.574H687.451C687.537 204.208 688.354 205.025 689.673 205.025C690.662 205.025 691.307 204.524 691.565 203.75L692.855 203.85C692.454 205.212 691.278 206.172 689.673 206.172ZM687.451 201.513H691.651C691.536 200.051 690.733 199.378 689.615 199.378C688.44 199.378 687.651 200.109 687.451 201.513Z" fill="black"/>
</g>
<g opacity="0.4">
<rect x="723" y="181" width="150" height="40" rx="8" fill="#AFF4C6"/>
<path d="M756.319 206V195.823H758.039L761.293 204.653L764.532 195.823H766.252V206H765.02V198.116L762.11 206H760.461L757.552 198.116V206H756.319ZM771.387 206.172C769.237 206.172 767.904 204.61 767.904 202.201C767.904 199.793 769.237 198.231 771.33 198.231C773.308 198.231 774.684 199.664 774.684 202.216V202.574H769.165C769.251 204.208 770.068 205.025 771.387 205.025C772.376 205.025 773.021 204.524 773.279 203.75L774.569 203.85C774.168 205.212 772.992 206.172 771.387 206.172ZM769.165 201.513H773.365C773.25 200.051 772.448 199.378 771.33 199.378C770.154 199.378 769.366 200.109 769.165 201.513ZM778.852 206.172C776.874 206.172 775.641 204.638 775.641 202.201C775.641 199.765 776.874 198.231 778.852 198.231C779.87 198.231 780.773 198.689 781.188 199.464V195.823H782.392V206H781.303L781.26 204.853C780.83 205.685 779.913 206.172 778.852 206.172ZM779.096 205.025C780.443 205.025 781.188 203.936 781.188 202.201C781.188 200.438 780.443 199.378 779.096 199.378C777.762 199.378 776.902 200.438 776.902 202.201C776.902 203.936 777.762 205.025 779.096 205.025ZM784.216 197.213V195.808H785.477V197.213H784.216ZM784.244 206V198.403H785.449V206H784.244ZM789.496 206.172C787.919 206.172 786.93 205.412 786.93 204.108C786.93 202.818 787.661 202.101 789.324 201.786L792.019 201.284C792.019 200.008 791.417 199.378 790.213 199.378C789.152 199.378 788.564 199.865 788.335 200.739L787.059 200.639C787.346 199.206 788.493 198.231 790.213 198.231C792.162 198.231 793.223 199.406 793.223 201.327V204.466C793.223 204.81 793.338 204.939 793.624 204.939H793.925V206C793.839 206.014 793.653 206.029 793.467 206.029C792.549 206.029 792.134 205.67 792.033 204.825C791.661 205.613 790.614 206.172 789.496 206.172ZM789.611 205.111C791.13 205.111 792.019 204.137 792.019 202.875V202.33L789.554 202.789C788.521 202.975 788.192 203.362 788.192 203.993C788.192 204.71 788.722 205.111 789.611 205.111ZM799.355 206V199.464H798.323V198.403H799.355V197.715C799.355 196.597 799.986 195.823 801.362 195.823H802.566V196.883H801.448C800.846 196.883 800.559 197.227 800.559 197.801V198.403H802.466V199.464H800.559V206H799.355ZM806.445 206.172C804.337 206.172 802.961 204.624 802.961 202.201C802.961 199.779 804.337 198.231 806.445 198.231C808.537 198.231 809.914 199.779 809.914 202.201C809.914 204.624 808.537 206.172 806.445 206.172ZM806.445 205.025C807.835 205.025 808.652 203.965 808.652 202.201C808.652 200.438 807.835 199.378 806.445 199.378C805.04 199.378 804.223 200.438 804.223 202.201C804.223 203.965 805.04 205.025 806.445 205.025ZM811.397 206V198.403H812.458L812.501 199.808C812.773 198.847 813.375 198.403 814.307 198.403H815.052V199.55H814.321C813.174 199.55 812.601 200.166 812.601 201.413V206H811.397ZM816.097 206V198.403H817.2L817.229 199.736C817.602 198.804 818.39 198.231 819.365 198.231C820.512 198.231 821.314 198.804 821.644 199.822C821.974 198.804 822.748 198.231 823.866 198.231C825.486 198.231 826.374 199.277 826.374 201.112V206H825.17V201.37C825.17 199.994 824.626 199.292 823.579 199.292C822.518 199.292 821.83 200.094 821.83 201.456V206H820.626V201.456C820.626 200.109 820.182 199.292 819.064 199.292C818.003 199.292 817.301 200.109 817.301 201.456V206H816.097ZM830.419 206.172C828.842 206.172 827.853 205.412 827.853 204.108C827.853 202.818 828.584 202.101 830.247 201.786L832.942 201.284C832.942 200.008 832.34 199.378 831.136 199.378C830.075 199.378 829.488 199.865 829.258 200.739L827.982 200.639C828.269 199.206 829.416 198.231 831.136 198.231C833.085 198.231 834.146 199.406 834.146 201.327V204.466C834.146 204.81 834.261 204.939 834.548 204.939H834.849V206C834.763 206.014 834.576 206.029 834.39 206.029C833.472 206.029 833.057 205.67 832.956 204.825C832.584 205.613 831.537 206.172 830.419 206.172ZM830.534 205.111C832.053 205.111 832.942 204.137 832.942 202.875V202.33L830.477 202.789C829.445 202.975 829.115 203.362 829.115 203.993C829.115 204.71 829.645 205.111 830.534 205.111ZM838.454 206C837.078 206 836.433 205.398 836.433 204.051V199.464H835.315V198.403H836.433V196.625H837.637V198.403H839.658V199.464H837.637V204.022C837.637 204.71 837.938 204.939 838.568 204.939H839.658V206H838.454Z" fill="black" fill-opacity="0.8"/>
</g>
</svg>
