<svg width="1232" height="130" viewBox="0 0 1232 130" fill="none" xmlns="http://www.w3.org/2000/svg">
<path d="M484 68.1353L484 93.2204" stroke="#888888" stroke-width="2"/>
<path d="M653 42L647.226 52L658.774 52L653 42ZM652 51L652 93L654 93L654 51L652 51Z" fill="#888888"/>
<path d="M822 68.1353L822 93.2204" stroke="#888888" stroke-width="2"/>
<path d="M315 93L315 68H991V93" stroke="#888888" stroke-width="2"/>
<path d="M521.24 31V11.12H528.94C533.588 11.12 536.36 13.5 536.36 17.448C536.36 21.424 533.588 23.832 528.94 23.832H524.88V31H521.24ZM524.88 20.668H528.772C531.236 20.668 532.608 19.576 532.608 17.448C532.608 15.376 531.264 14.284 528.772 14.284H524.88V20.668ZM544.949 31.336C540.497 31.336 537.585 28.256 537.585 23.524C537.585 18.792 540.497 15.712 544.949 15.712C549.373 15.712 552.285 18.792 552.285 23.524C552.285 28.256 549.373 31.336 544.949 31.336ZM544.949 28.424C547.245 28.424 548.561 26.632 548.561 23.524C548.561 20.444 547.245 18.624 544.949 18.624C542.625 18.624 541.309 20.444 541.309 23.524C541.309 26.632 542.625 28.424 544.949 28.424ZM558.463 31C556.279 31 554.879 29.964 554.879 27.472V11.12H558.463V27.108C558.463 27.892 558.855 28.228 559.583 28.228H560.675V31H558.463ZM562.609 14.06V10.868H566.333V14.06H562.609ZM562.665 31V16.048H566.249V31H562.665ZM574.939 31C571.971 31 570.599 29.684 570.599 26.716V18.82H568.247V16.048H570.599V12.548H574.183V16.048H578.131V18.82H574.183V26.38C574.183 27.78 574.771 28.228 576.031 28.228H578.131V31H574.939ZM580.395 14.06V10.868H584.119V14.06H580.395ZM580.451 31V16.048H584.035V31H580.451ZM593.885 31.336C589.433 31.336 586.521 28.256 586.521 23.524C586.521 18.82 589.433 15.712 593.885 15.712C597.665 15.712 600.409 17.784 600.857 21.34L597.161 21.536C596.853 19.632 595.621 18.624 593.885 18.624C591.561 18.624 590.245 20.444 590.245 23.524C590.245 26.632 591.561 28.424 593.885 28.424C595.621 28.424 596.881 27.416 597.161 25.316L600.857 25.484C600.437 29.068 597.721 31.336 593.885 31.336ZM607.609 31.336C604.473 31.336 602.401 29.852 602.401 27.248C602.401 24.672 603.997 23.3 607.273 22.656L612.229 21.676C612.229 19.576 611.249 18.484 609.345 18.484C607.609 18.484 606.629 19.296 606.293 20.808L602.653 20.64C603.241 17.504 605.649 15.712 609.345 15.712C613.601 15.712 615.813 17.952 615.813 21.928V27.36C615.813 28.172 616.093 28.396 616.653 28.396H617.129V31C616.877 31.056 616.317 31.112 615.813 31.112C614.189 31.112 612.985 30.524 612.705 28.704C611.949 30.3 610.045 31.336 607.609 31.336ZM608.337 28.732C610.717 28.732 612.229 27.22 612.229 24.952V24.112L608.365 24.896C606.769 25.204 606.125 25.876 606.125 26.912C606.125 28.088 606.909 28.732 608.337 28.732ZM622.514 31C620.33 31 618.93 29.964 618.93 27.472V11.12H622.514V27.108C622.514 27.892 622.906 28.228 623.634 28.228H624.726V31H622.514ZM633.523 31V11.12H641.223C645.871 11.12 648.643 13.5 648.643 17.448C648.643 21.424 645.871 23.832 641.223 23.832H637.163V31H633.523ZM637.163 20.668H641.055C643.519 20.668 644.891 19.576 644.891 17.448C644.891 15.376 643.547 14.284 641.055 14.284H637.163V20.668ZM657.232 31.336C652.78 31.336 649.868 28.256 649.868 23.524C649.868 18.792 652.78 15.712 657.232 15.712C661.656 15.712 664.568 18.792 664.568 23.524C664.568 28.256 661.656 31.336 657.232 31.336ZM657.232 28.424C659.528 28.424 660.844 26.632 660.844 23.524C660.844 20.444 659.528 18.624 657.232 18.624C654.908 18.624 653.592 20.444 653.592 23.524C653.592 26.632 654.908 28.424 657.232 28.424ZM670.746 31C668.562 31 667.162 29.964 667.162 27.472V11.12H670.746V27.108C670.746 27.892 671.138 28.228 671.866 28.228H672.958V31H670.746ZM679.452 31.336C676.316 31.336 674.244 29.852 674.244 27.248C674.244 24.672 675.84 23.3 679.116 22.656L684.072 21.676C684.072 19.576 683.092 18.484 681.188 18.484C679.452 18.484 678.472 19.296 678.136 20.808L674.496 20.64C675.084 17.504 677.492 15.712 681.188 15.712C685.444 15.712 687.656 17.952 687.656 21.928V27.36C687.656 28.172 687.936 28.396 688.496 28.396H688.972V31C688.72 31.056 688.16 31.112 687.656 31.112C686.032 31.112 684.828 30.524 684.548 28.704C683.792 30.3 681.888 31.336 679.452 31.336ZM680.18 28.732C682.56 28.732 684.072 27.22 684.072 24.952V24.112L680.208 24.896C678.612 25.204 677.968 25.876 677.968 26.912C677.968 28.088 678.752 28.732 680.18 28.732ZM690.992 31V16.048H694.352L694.436 18.96C695.024 16.944 696.172 16.048 698.02 16.048H699.392V19.128H697.992C695.696 19.128 694.576 20.08 694.576 22.376V31H690.992ZM701.347 14.06V10.868H705.071V14.06H701.347ZM701.403 31V16.048H704.987V31H701.403ZM714.417 31.336C709.993 31.336 707.697 29.236 707.473 26.296L711.141 26.128C711.393 27.696 712.373 28.592 714.445 28.592C716.097 28.592 717.133 28.088 717.133 26.912C717.133 25.904 716.601 25.456 713.857 24.98C709.265 24.196 707.837 22.964 707.837 20.416C707.837 17.644 709.993 15.712 714.165 15.712C718.197 15.712 720.269 17.868 720.661 20.752L717.049 20.92C716.797 19.408 715.789 18.456 714.109 18.456C712.429 18.456 711.561 19.212 711.561 20.304C711.561 21.508 712.345 21.984 714.613 22.348C719.317 23.076 720.829 24.364 720.829 26.856C720.829 29.74 718.253 31.336 714.417 31.336ZM727.877 31.336C724.741 31.336 722.669 29.852 722.669 27.248C722.669 24.672 724.265 23.3 727.541 22.656L732.497 21.676C732.497 19.576 731.517 18.484 729.613 18.484C727.877 18.484 726.897 19.296 726.561 20.808L722.921 20.64C723.509 17.504 725.917 15.712 729.613 15.712C733.869 15.712 736.081 17.952 736.081 21.928V27.36C736.081 28.172 736.361 28.396 736.921 28.396H737.397V31C737.145 31.056 736.585 31.112 736.081 31.112C734.457 31.112 733.253 30.524 732.973 28.704C732.217 30.3 730.313 31.336 727.877 31.336ZM728.605 28.732C730.985 28.732 732.497 27.22 732.497 24.952V24.112L728.633 24.896C727.037 25.204 726.393 25.876 726.393 26.912C726.393 28.088 727.177 28.732 728.605 28.732ZM744.642 31C741.674 31 740.302 29.684 740.302 26.716V18.82H737.95V16.048H740.302V12.548H743.886V16.048H747.834V18.82H743.886V26.38C743.886 27.78 744.474 28.228 745.734 28.228H747.834V31H744.642ZM750.099 14.06V10.868H753.823V14.06H750.099ZM750.155 31V16.048H753.739V31H750.155ZM763.589 31.336C759.137 31.336 756.225 28.256 756.225 23.524C756.225 18.792 759.137 15.712 763.589 15.712C768.013 15.712 770.925 18.792 770.925 23.524C770.925 28.256 768.013 31.336 763.589 31.336ZM763.589 28.424C765.885 28.424 767.201 26.632 767.201 23.524C767.201 20.444 765.885 18.624 763.589 18.624C761.265 18.624 759.949 20.444 759.949 23.524C759.949 26.632 761.265 28.424 763.589 28.424ZM773.383 31V16.048H776.631L776.715 18.596C777.527 16.552 779.207 15.712 781.195 15.712C784.499 15.712 786.291 18.036 786.291 21.396V31H782.707V22.544C782.707 20.024 782.035 18.624 780.103 18.624C778.171 18.624 776.967 20.024 776.967 22.544V31H773.383Z" fill="black"/>
<rect x="237" y="93" width="154.691" height="36.9453" rx="18.4726" fill="#BDE3FF"/>
<path d="M255.384 116.973V105.099H256.822V116.973H255.384ZM259.67 116.973V108.109H260.958L260.992 109.698C261.46 108.477 262.497 107.909 263.717 107.909C265.741 107.909 266.711 109.397 266.711 111.27V116.973H265.306V111.671C265.306 110.032 264.754 109.146 263.416 109.146C262.045 109.146 261.075 110.032 261.075 111.671V116.973H259.67ZM271.778 116.973C270.173 116.973 269.42 116.27 269.42 114.698V109.347H268.116V108.109H269.42V106.036H270.825V108.109H273.183V109.347H270.825V114.665C270.825 115.468 271.176 115.735 271.912 115.735H273.183V116.973H271.778ZM278.099 117.173C275.591 117.173 274.036 115.35 274.036 112.541C274.036 109.731 275.591 107.909 278.033 107.909C280.34 107.909 281.946 109.581 281.946 112.558V112.976H275.507C275.608 114.882 276.561 115.835 278.099 115.835C279.253 115.835 280.006 115.25 280.307 114.347L281.812 114.464C281.344 116.053 279.972 117.173 278.099 117.173ZM275.507 111.738H280.407C280.274 110.032 279.337 109.246 278.033 109.246C276.661 109.246 275.741 110.099 275.507 111.738ZM283.665 116.973V108.109H284.902L284.952 109.748C285.27 108.628 285.973 108.109 287.06 108.109H287.929V109.447H287.076C285.738 109.447 285.069 110.166 285.069 111.621V116.973H283.665ZM289.854 116.973V109.347H288.65V108.109H289.854V107.307C289.854 106.002 290.59 105.099 292.195 105.099H293.6V106.337H292.296C291.593 106.337 291.259 106.738 291.259 107.407V108.109H293.483V109.347H291.259V116.973H289.854ZM297.284 117.173C295.444 117.173 294.29 116.287 294.29 114.765C294.29 113.26 295.143 112.424 297.083 112.056L300.227 111.471C300.227 109.982 299.524 109.246 298.12 109.246C296.882 109.246 296.197 109.815 295.929 110.835L294.441 110.718C294.775 109.046 296.113 107.909 298.12 107.909C300.394 107.909 301.632 109.28 301.632 111.521V115.183C301.632 115.585 301.765 115.735 302.1 115.735H302.451V116.973C302.351 116.989 302.133 117.006 301.916 117.006C300.846 117.006 300.361 116.588 300.244 115.601C299.809 116.521 298.588 117.173 297.284 117.173ZM297.417 115.936C299.19 115.936 300.227 114.799 300.227 113.327V112.691L297.35 113.227C296.146 113.444 295.762 113.896 295.762 114.631C295.762 115.468 296.381 115.936 297.417 115.936ZM307.283 117.173C304.808 117.173 303.219 115.35 303.219 112.541C303.219 109.731 304.808 107.909 307.283 107.909C309.323 107.909 310.745 109.012 311.046 110.986L309.574 111.086C309.373 109.915 308.487 109.246 307.283 109.246C305.644 109.246 304.691 110.484 304.691 112.541C304.691 114.598 305.644 115.835 307.283 115.835C308.487 115.835 309.373 115.167 309.574 113.829L311.046 113.929C310.745 115.902 309.323 117.173 307.283 117.173ZM316.065 117.173C313.556 117.173 312.001 115.35 312.001 112.541C312.001 109.731 313.556 107.909 315.998 107.909C318.306 107.909 319.911 109.581 319.911 112.558V112.976H313.473C313.573 114.882 314.526 115.835 316.065 115.835C317.219 115.835 317.971 115.25 318.272 114.347L319.777 114.464C319.309 116.053 317.938 117.173 316.065 117.173ZM313.473 111.738H318.373C318.239 110.032 317.302 109.246 315.998 109.246C314.627 109.246 313.707 110.099 313.473 111.738ZM328.934 117.173C326.626 117.173 325.188 115.384 325.188 112.541C325.188 109.698 326.626 107.909 328.934 107.909C330.122 107.909 331.175 108.444 331.66 109.347V105.099H333.065V116.973H331.794L331.744 115.635C331.242 116.605 330.172 117.173 328.934 117.173ZM329.219 115.835C330.791 115.835 331.66 114.564 331.66 112.541C331.66 110.484 330.791 109.246 329.219 109.246C327.663 109.246 326.66 110.484 326.66 112.541C326.66 114.564 327.663 115.835 329.219 115.835ZM338.851 117.173C336.342 117.173 334.787 115.35 334.787 112.541C334.787 109.731 336.342 107.909 338.784 107.909C341.092 107.909 342.697 109.581 342.697 112.558V112.976H336.258C336.359 114.882 337.312 115.835 338.851 115.835C340.005 115.835 340.757 115.25 341.058 114.347L342.563 114.464C342.095 116.053 340.724 117.173 338.851 117.173ZM336.258 111.738H341.158C341.025 110.032 340.088 109.246 338.784 109.246C337.412 109.246 336.493 110.099 336.258 111.738ZM347.643 117.173C345.269 117.173 343.948 115.919 343.814 114.18L345.285 114.08C345.453 115.15 346.138 115.835 347.643 115.835C348.848 115.835 349.634 115.468 349.634 114.598C349.634 113.896 349.282 113.595 347.376 113.26C344.834 112.809 344.031 112.023 344.031 110.618C344.031 109.046 345.235 107.909 347.376 107.909C349.533 107.909 350.67 109.213 350.938 110.752L349.466 110.852C349.266 109.915 348.563 109.246 347.359 109.246C346.088 109.246 345.503 109.798 345.503 110.551C345.503 111.42 346.071 111.755 347.643 112.023C350.353 112.491 351.105 113.193 351.105 114.598C351.105 116.237 349.6 117.173 347.643 117.173ZM352.805 106.721V105.082H354.277V106.721H352.805ZM352.839 116.973V108.109H354.243V116.973H352.839ZM359.936 119.682C358.029 119.682 356.591 118.662 356.223 117.106L357.695 117.006C357.962 117.842 358.564 118.344 359.936 118.344C361.541 118.344 362.427 117.708 362.427 116.404V114.966C361.993 115.902 360.989 116.504 359.835 116.504C357.578 116.504 355.972 114.732 355.972 112.206C355.972 109.681 357.544 107.909 359.768 107.909C361.006 107.909 362.093 108.527 362.494 109.514V108.109H363.832V116.371C363.832 118.444 362.377 119.682 359.936 119.682ZM359.902 115.167C361.424 115.167 362.411 114.029 362.427 112.206C362.461 110.384 361.441 109.246 359.902 109.246C358.347 109.246 357.444 110.384 357.444 112.206C357.444 114.029 358.38 115.167 359.902 115.167ZM366.32 116.973V108.109H367.607L367.641 109.698C368.109 108.477 369.146 107.909 370.367 107.909C372.39 107.909 373.36 109.397 373.36 111.27V116.973H371.956V111.671C371.956 110.032 371.404 109.146 370.066 109.146C368.694 109.146 367.724 110.032 367.724 111.671V116.973H366.32Z" fill="black"/>
<g opacity="0.4">
<rect x="406.025" y="93" width="154.691" height="36.9453" rx="18.4726" fill="#BDE3FF"/>
<path d="M443.206 116.973L447.487 105.099H449.427L453.708 116.973H452.136L450.948 113.595H445.965L444.778 116.973H443.206ZM446.45 112.19H450.464L448.457 106.353L446.45 112.19ZM456.608 116.973C455.571 116.973 454.869 116.471 454.869 115.3V105.099H456.274V115.183C456.274 115.551 456.458 115.735 456.826 115.735H457.595V116.973H456.608ZM462.407 119.682C460.501 119.682 459.062 118.662 458.694 117.106L460.166 117.006C460.434 117.842 461.036 118.344 462.407 118.344C464.012 118.344 464.899 117.708 464.899 116.404V114.966C464.464 115.902 463.461 116.504 462.307 116.504C460.049 116.504 458.444 114.732 458.444 112.206C458.444 109.681 460.016 107.909 462.24 107.909C463.477 107.909 464.564 108.527 464.966 109.514V108.109H466.304V116.371C466.304 118.444 464.849 119.682 462.407 119.682ZM462.374 115.167C463.895 115.167 464.882 114.029 464.899 112.206C464.932 110.384 463.912 109.246 462.374 109.246C460.818 109.246 459.915 110.384 459.915 112.206C459.915 114.029 460.852 115.167 462.374 115.167ZM472.09 117.173C469.631 117.173 468.026 115.367 468.026 112.541C468.026 109.715 469.631 107.909 472.09 107.909C474.531 107.909 476.137 109.715 476.137 112.541C476.137 115.367 474.531 117.173 472.09 117.173ZM472.09 115.835C473.712 115.835 474.665 114.598 474.665 112.541C474.665 110.484 473.712 109.246 472.09 109.246C470.451 109.246 469.497 110.484 469.497 112.541C469.497 114.598 470.451 115.835 472.09 115.835ZM477.867 116.973V108.109H479.105L479.155 109.748C479.473 108.628 480.175 108.109 481.262 108.109H482.132V109.447H481.279C479.941 109.447 479.272 110.166 479.272 111.621V116.973H477.867ZM483.48 106.721V105.082H484.952V106.721H483.48ZM483.514 116.973V108.109H484.918V116.973H483.514ZM489.987 116.973C488.382 116.973 487.629 116.27 487.629 114.698V109.347H486.325V108.109H487.629V106.036H489.034V108.109H491.392V109.347H489.034V114.665C489.034 115.468 489.385 115.735 490.121 115.735H491.392V116.973H489.987ZM493.01 116.973V105.099H494.415V109.497C494.866 108.41 495.87 107.909 497.09 107.909C498.997 107.909 500.05 109.297 500.05 111.27V116.973H498.646V111.671C498.646 109.966 498.027 109.146 496.789 109.146C495.351 109.146 494.415 110.049 494.415 111.688V116.973H493.01ZM502.216 116.973V108.109H503.504L503.538 109.665C503.972 108.578 504.892 107.909 506.029 107.909C507.367 107.909 508.304 108.578 508.688 109.765C509.073 108.578 509.976 107.909 511.281 107.909C513.17 107.909 514.207 109.129 514.207 111.27V116.973H512.802V111.571C512.802 109.966 512.167 109.146 510.946 109.146C509.709 109.146 508.906 110.083 508.906 111.671V116.973H507.501V111.671C507.501 110.099 506.983 109.146 505.678 109.146C504.441 109.146 503.621 110.099 503.621 111.671V116.973H502.216ZM519.73 117.173C517.355 117.173 516.034 115.919 515.9 114.18L517.372 114.08C517.539 115.15 518.225 115.835 519.73 115.835C520.934 115.835 521.72 115.468 521.72 114.598C521.72 113.896 521.369 113.595 519.462 113.26C516.92 112.809 516.118 112.023 516.118 110.618C516.118 109.046 517.322 107.909 519.462 107.909C521.62 107.909 522.757 109.213 523.024 110.752L521.553 110.852C521.352 109.915 520.65 109.246 519.445 109.246C518.174 109.246 517.589 109.798 517.589 110.551C517.589 111.42 518.158 111.755 519.73 112.023C522.439 112.491 523.192 113.193 523.192 114.598C523.192 116.237 521.686 117.173 519.73 117.173Z" fill="black"/>
</g>
<g opacity="0.4">
<rect x="575.052" y="93" width="154.691" height="36.9453" rx="18.4726" fill="#BDE3FF"/>
<path d="M607.517 117.24C604.774 117.24 603.018 115.585 602.817 113.176L604.322 113.076C604.556 114.849 605.644 115.835 607.55 115.835C609.206 115.835 610.176 115.183 610.176 113.962C610.176 112.859 609.624 112.19 606.781 111.487C604.038 110.802 603.068 109.982 603.068 108.21C603.068 106.22 604.573 104.831 607.015 104.831C609.624 104.831 611.162 106.437 611.43 108.611L609.925 108.711C609.724 107.273 608.754 106.236 606.981 106.236C605.51 106.236 604.573 107.006 604.573 108.143C604.573 109.263 605.175 109.665 607.684 110.283C610.661 111.019 611.681 112.156 611.681 113.862C611.681 115.936 609.941 117.24 607.517 117.24ZM617.439 117.173C614.981 117.173 613.375 115.367 613.375 112.541C613.375 109.715 614.981 107.909 617.439 107.909C619.88 107.909 621.486 109.715 621.486 112.541C621.486 115.367 619.88 117.173 617.439 117.173ZM617.439 115.835C619.061 115.835 620.014 114.598 620.014 112.541C620.014 110.484 619.061 109.246 617.439 109.246C615.8 109.246 614.847 110.484 614.847 112.541C614.847 114.598 615.8 115.835 617.439 115.835ZM626.678 117.173C624.203 117.173 622.614 115.35 622.614 112.541C622.614 109.731 624.203 107.909 626.678 107.909C628.718 107.909 630.14 109.012 630.441 110.986L628.969 111.086C628.769 109.915 627.882 109.246 626.678 109.246C625.039 109.246 624.086 110.484 624.086 112.541C624.086 114.598 625.039 115.835 626.678 115.835C627.882 115.835 628.769 115.167 628.969 113.829L630.441 113.929C630.14 115.902 628.718 117.173 626.678 117.173ZM631.965 106.721V105.082H633.437V106.721H631.965ZM631.998 116.973V108.109H633.403V116.973H631.998ZM639.196 117.173C636.687 117.173 635.132 115.35 635.132 112.541C635.132 109.731 636.687 107.909 639.129 107.909C641.437 107.909 643.042 109.581 643.042 112.558V112.976H636.604C636.704 114.882 637.657 115.835 639.196 115.835C640.35 115.835 641.102 115.25 641.403 114.347L642.908 114.464C642.44 116.053 641.069 117.173 639.196 117.173ZM636.604 111.738H641.504C641.37 110.032 640.433 109.246 639.129 109.246C637.758 109.246 636.838 110.099 636.604 111.738ZM647.662 116.973C646.057 116.973 645.304 116.27 645.304 114.698V109.347H644V108.109H645.304V106.036H646.709V108.109H649.067V109.347H646.709V114.665C646.709 115.468 647.06 115.735 647.796 115.735H649.067V116.973H647.662ZM653.011 117.173C651.172 117.173 650.018 116.287 650.018 114.765C650.018 113.26 650.871 112.424 652.81 112.056L655.954 111.471C655.954 109.982 655.252 109.246 653.847 109.246C652.61 109.246 651.924 109.815 651.657 110.835L650.168 110.718C650.503 109.046 651.84 107.909 653.847 107.909C656.122 107.909 657.359 109.28 657.359 111.521V115.183C657.359 115.585 657.493 115.735 657.827 115.735H658.179V116.973C658.078 116.989 657.861 117.006 657.643 117.006C656.573 117.006 656.088 116.588 655.971 115.601C655.536 116.521 654.316 117.173 653.011 117.173ZM653.145 115.936C654.918 115.936 655.954 114.799 655.954 113.327V112.691L653.078 113.227C651.874 113.444 651.489 113.896 651.489 114.631C651.489 115.468 652.108 115.936 653.145 115.936ZM661.223 116.973C660.186 116.973 659.483 116.471 659.483 115.3V105.099H660.888V115.183C660.888 115.551 661.072 115.735 661.44 115.735H662.209V116.973H661.223ZM669.494 116.973C668.457 116.973 667.755 116.471 667.755 115.3V105.099H669.16V115.183C669.16 115.551 669.343 115.735 669.711 115.735H670.481V116.973H669.494ZM675.393 117.173C672.935 117.173 671.329 115.367 671.329 112.541C671.329 109.715 672.935 107.909 675.393 107.909C677.835 107.909 679.44 109.715 679.44 112.541C679.44 115.367 677.835 117.173 675.393 117.173ZM675.393 115.835C677.015 115.835 677.968 114.598 677.968 112.541C677.968 110.484 677.015 109.246 675.393 109.246C673.754 109.246 672.801 110.484 672.801 112.541C672.801 114.598 673.754 115.835 675.393 115.835ZM684.532 119.682C682.626 119.682 681.187 118.662 680.819 117.106L682.291 117.006C682.559 117.842 683.161 118.344 684.532 118.344C686.137 118.344 687.024 117.708 687.024 116.404V114.966C686.589 115.902 685.586 116.504 684.432 116.504C682.174 116.504 680.569 114.732 680.569 112.206C680.569 109.681 682.141 107.909 684.365 107.909C685.602 107.909 686.689 108.527 687.091 109.514V108.109H688.429V116.371C688.429 118.444 686.974 119.682 684.532 119.682ZM684.499 115.167C686.02 115.167 687.007 114.029 687.024 112.206C687.057 110.384 686.037 109.246 684.499 109.246C682.943 109.246 682.04 110.384 682.04 112.206C682.04 114.029 682.977 115.167 684.499 115.167ZM690.638 106.721V105.082H692.109V106.721H690.638ZM690.671 116.973V108.109H692.076V116.973H690.671ZM697.868 117.173C695.393 117.173 693.805 115.35 693.805 112.541C693.805 109.731 695.393 107.909 697.868 107.909C699.909 107.909 701.33 109.012 701.631 110.986L700.16 111.086C699.959 109.915 699.073 109.246 697.868 109.246C696.23 109.246 695.276 110.484 695.276 112.541C695.276 114.598 696.23 115.835 697.868 115.835C699.073 115.835 699.959 115.167 700.16 113.829L701.631 113.929C701.33 115.902 699.909 117.173 697.868 117.173Z" fill="black" fill-opacity="0.8"/>
</g>
<g opacity="0.4">
<rect x="741.688" y="93" width="154.691" height="36.9453" rx="18.4726" fill="#BDE3FF"/>
<path d="M777.572 116.973V105.099H781.837C784.479 105.099 786.034 106.437 786.034 108.695C786.034 110.986 784.479 112.357 781.837 112.357H779.01V116.973H777.572ZM779.01 110.952H781.837C783.626 110.952 784.529 110.183 784.529 108.695C784.529 107.24 783.626 106.504 781.837 106.504H779.01V110.952ZM790.818 117.173C788.444 117.173 787.122 115.919 786.989 114.18L788.46 114.08C788.628 115.15 789.313 115.835 790.818 115.835C792.022 115.835 792.808 115.468 792.808 114.598C792.808 113.896 792.457 113.595 790.551 113.26C788.009 112.809 787.206 112.023 787.206 110.618C787.206 109.046 788.41 107.909 790.551 107.909C792.708 107.909 793.845 109.213 794.113 110.752L792.641 110.852C792.441 109.915 791.738 109.246 790.534 109.246C789.263 109.246 788.678 109.798 788.678 110.551C788.678 111.42 789.246 111.755 790.818 112.023C793.528 112.491 794.28 113.193 794.28 114.598C794.28 116.237 792.775 117.173 790.818 117.173ZM796.137 119.481V118.244H797.157C797.776 118.244 798.027 118.06 798.194 117.642L798.512 116.805H798.027L794.782 108.109H796.321L798.963 115.501L801.488 108.109H803.027L799.431 118.093C799.097 119.046 798.478 119.481 797.291 119.481H796.137ZM807.571 117.173C805.096 117.173 803.507 115.35 803.507 112.541C803.507 109.731 805.096 107.909 807.571 107.909C809.612 107.909 811.033 109.012 811.334 110.986L809.862 111.086C809.662 109.915 808.775 109.246 807.571 109.246C805.932 109.246 804.979 110.484 804.979 112.541C804.979 114.598 805.932 115.835 807.571 115.835C808.775 115.835 809.662 115.167 809.862 113.829L811.334 113.929C811.033 115.902 809.612 117.173 807.571 117.173ZM812.892 116.973V105.099H814.296V109.497C814.748 108.41 815.751 107.909 816.972 107.909C818.879 107.909 819.932 109.297 819.932 111.27V116.973H818.527V111.671C818.527 109.966 817.909 109.146 816.671 109.146C815.233 109.146 814.296 110.049 814.296 111.688V116.973H812.892ZM825.691 117.173C823.232 117.173 821.627 115.367 821.627 112.541C821.627 109.715 823.232 107.909 825.691 107.909C828.132 107.909 829.738 109.715 829.738 112.541C829.738 115.367 828.132 117.173 825.691 117.173ZM825.691 115.835C827.313 115.835 828.266 114.598 828.266 112.541C828.266 110.484 827.313 109.246 825.691 109.246C824.052 109.246 823.098 110.484 823.098 112.541C823.098 114.598 824.052 115.835 825.691 115.835ZM833.289 116.973C832.252 116.973 831.55 116.471 831.55 115.3V105.099H832.955V115.183C832.955 115.551 833.138 115.735 833.506 115.735H834.276V116.973H833.289ZM839.188 117.173C836.73 117.173 835.124 115.367 835.124 112.541C835.124 109.715 836.73 107.909 839.188 107.909C841.63 107.909 843.235 109.715 843.235 112.541C843.235 115.367 841.63 117.173 839.188 117.173ZM839.188 115.835C840.81 115.835 841.763 114.598 841.763 112.541C841.763 110.484 840.81 109.246 839.188 109.246C837.549 109.246 836.596 110.484 836.596 112.541C836.596 114.598 837.549 115.835 839.188 115.835ZM848.327 119.682C846.421 119.682 844.982 118.662 844.614 117.106L846.086 117.006C846.354 117.842 846.956 118.344 848.327 118.344C849.932 118.344 850.819 117.708 850.819 116.404V114.966C850.384 115.902 849.381 116.504 848.227 116.504C845.969 116.504 844.364 114.732 844.364 112.206C844.364 109.681 845.936 107.909 848.16 107.909C849.397 107.909 850.484 108.527 850.886 109.514V108.109H852.224V116.371C852.224 118.444 850.769 119.682 848.327 119.682ZM848.294 115.167C849.815 115.167 850.802 114.029 850.819 112.206C850.852 110.384 849.832 109.246 848.294 109.246C846.738 109.246 845.835 110.384 845.835 112.206C845.835 114.029 846.772 115.167 848.294 115.167ZM854.769 119.481V118.244H855.789C856.408 118.244 856.659 118.06 856.826 117.642L857.144 116.805H856.659L853.415 108.109H854.953L857.595 115.501L860.121 108.109H861.659L858.064 118.093C857.729 119.046 857.11 119.481 855.923 119.481H854.769Z" fill="black" fill-opacity="0.8"/>
</g>
<g opacity="0.4">
<rect x="913.103" y="93" width="154.691" height="36.9453" rx="18.4726" fill="#BDE3FF"/>
<path d="M931.536 117.24C928.359 117.24 926.201 114.899 926.201 111.053C926.201 107.206 928.359 104.831 931.536 104.831C934.412 104.831 935.934 106.387 936.436 108.879L934.914 108.979C934.58 107.29 933.509 106.236 931.536 106.236C929.262 106.236 927.706 108.042 927.706 111.053C927.706 114.063 929.262 115.835 931.536 115.835C933.61 115.835 934.713 114.682 935.015 112.825L936.536 112.926C936.102 115.501 934.379 117.24 931.536 117.24ZM940.687 117.173C938.848 117.173 937.694 116.287 937.694 114.765C937.694 113.26 938.547 112.424 940.487 112.056L943.631 111.471C943.631 109.982 942.928 109.246 941.524 109.246C940.286 109.246 939.6 109.815 939.333 110.835L937.844 110.718C938.179 109.046 939.517 107.909 941.524 107.909C943.798 107.909 945.035 109.28 945.035 111.521V115.183C945.035 115.585 945.169 115.735 945.504 115.735H945.855V116.973C945.755 116.989 945.537 117.006 945.32 117.006C944.249 117.006 943.765 116.588 943.647 115.601C943.213 116.521 941.992 117.173 940.687 117.173ZM940.821 115.936C942.594 115.936 943.631 114.799 943.631 113.327V112.691L940.754 113.227C939.55 113.444 939.166 113.896 939.166 114.631C939.166 115.468 939.784 115.936 940.821 115.936ZM947.258 119.481V108.109H948.562L948.579 109.464C949.114 108.444 950.101 107.909 951.305 107.909C953.947 107.909 955.134 110.099 955.134 112.541C955.134 114.983 953.947 117.173 951.305 117.173C950.151 117.173 949.131 116.655 948.662 115.802V119.481H947.258ZM951.171 115.835C952.709 115.835 953.663 114.615 953.663 112.541C953.663 110.467 952.709 109.246 951.171 109.246C949.632 109.246 948.662 110.367 948.662 112.541C948.662 114.715 949.616 115.835 951.171 115.835ZM956.823 106.721V105.082H958.294V106.721H956.823ZM956.856 116.973V108.109H958.261V116.973H956.856ZM963.33 116.973C961.724 116.973 960.972 116.27 960.972 114.698V109.347H959.667V108.109H960.972V106.036H962.377V108.109H964.735V109.347H962.377V114.665C962.377 115.468 962.728 115.735 963.464 115.735H964.735V116.973H963.33ZM968.679 117.173C966.839 117.173 965.685 116.287 965.685 114.765C965.685 113.26 966.538 112.424 968.478 112.056L971.622 111.471C971.622 109.982 970.92 109.246 969.515 109.246C968.277 109.246 967.592 109.815 967.324 110.835L965.836 110.718C966.17 109.046 967.508 107.909 969.515 107.909C971.789 107.909 973.027 109.28 973.027 111.521V115.183C973.027 115.585 973.16 115.735 973.495 115.735H973.846V116.973C973.746 116.989 973.528 117.006 973.311 117.006C972.241 117.006 971.756 116.588 971.639 115.601C971.204 116.521 969.983 117.173 968.679 117.173ZM968.812 115.936C970.585 115.936 971.622 114.799 971.622 113.327V112.691L968.745 113.227C967.541 113.444 967.157 113.896 967.157 114.631C967.157 115.468 967.776 115.936 968.812 115.936ZM976.89 116.973C975.853 116.973 975.151 116.471 975.151 115.3V105.099H976.556V115.183C976.556 115.551 976.74 115.735 977.107 115.735H977.877V116.973H976.89ZM979.261 106.721V105.082H980.733V106.721H979.261ZM979.295 116.973V108.109H980.699V116.973H979.295ZM986.258 117.173C983.883 117.173 982.562 115.919 982.428 114.18L983.9 114.08C984.067 115.15 984.753 115.835 986.258 115.835C987.462 115.835 988.248 115.468 988.248 114.598C988.248 113.896 987.897 113.595 985.99 113.26C983.448 112.809 982.646 112.023 982.646 110.618C982.646 109.046 983.85 107.909 985.99 107.909C988.148 107.909 989.285 109.213 989.552 110.752L988.081 110.852C987.88 109.915 987.178 109.246 985.974 109.246C984.703 109.246 984.117 109.798 984.117 110.551C984.117 111.42 984.686 111.755 986.258 112.023C988.967 112.491 989.72 113.193 989.72 114.598C989.72 116.237 988.215 117.173 986.258 117.173ZM994.354 116.973C992.749 116.973 991.996 116.27 991.996 114.698V109.347H990.692V108.109H991.996V106.036H993.401V108.109H995.759V109.347H993.401V114.665C993.401 115.468 993.752 115.735 994.488 115.735H995.759V116.973H994.354ZM1004.7 117.173C1002.32 117.173 1001 115.919 1000.87 114.18L1002.34 114.08C1002.51 115.15 1003.19 115.835 1004.7 115.835C1005.9 115.835 1006.69 115.468 1006.69 114.598C1006.69 113.896 1006.34 113.595 1004.43 113.26C1001.89 112.809 1001.09 112.023 1001.09 110.618C1001.09 109.046 1002.29 107.909 1004.43 107.909C1006.59 107.909 1007.73 109.213 1007.99 110.752L1006.52 110.852C1006.32 109.915 1005.62 109.246 1004.42 109.246C1003.14 109.246 1002.56 109.798 1002.56 110.551C1002.56 111.42 1003.13 111.755 1004.7 112.023C1007.41 112.491 1008.16 113.193 1008.16 114.598C1008.16 116.237 1006.66 117.173 1004.7 117.173ZM1010.02 119.481V118.244H1011.04C1011.66 118.244 1011.91 118.06 1012.07 117.642L1012.39 116.805H1011.91L1008.66 108.109H1010.2L1012.84 115.501L1015.37 108.109H1016.91L1013.31 118.093C1012.98 119.046 1012.36 119.481 1011.17 119.481H1010.02ZM1021.22 117.173C1018.84 117.173 1017.52 115.919 1017.39 114.18L1018.86 114.08C1019.03 115.15 1019.71 115.835 1021.22 115.835C1022.42 115.835 1023.21 115.468 1023.21 114.598C1023.21 113.896 1022.86 113.595 1020.95 113.26C1018.41 112.809 1017.61 112.023 1017.61 110.618C1017.61 109.046 1018.81 107.909 1020.95 107.909C1023.11 107.909 1024.25 109.213 1024.51 110.752L1023.04 110.852C1022.84 109.915 1022.14 109.246 1020.93 109.246C1019.66 109.246 1019.08 109.798 1019.08 110.551C1019.08 111.42 1019.65 111.755 1021.22 112.023C1023.93 112.491 1024.68 113.193 1024.68 114.598C1024.68 116.237 1023.17 117.173 1021.22 117.173ZM1029.31 116.973C1027.71 116.973 1026.96 116.27 1026.96 114.698V109.347H1025.65V108.109H1026.96V106.036H1028.36V108.109H1030.72V109.347H1028.36V114.665C1028.36 115.468 1028.71 115.735 1029.45 115.735H1030.72V116.973H1029.31ZM1035.64 117.173C1033.13 117.173 1031.57 115.35 1031.57 112.541C1031.57 109.731 1033.13 107.909 1035.57 107.909C1037.88 107.909 1039.48 109.581 1039.48 112.558V112.976H1033.04C1033.14 114.882 1034.1 115.835 1035.64 115.835C1036.79 115.835 1037.54 115.25 1037.84 114.347L1039.35 114.464C1038.88 116.053 1037.51 117.173 1035.64 117.173ZM1033.04 111.738H1037.94C1037.81 110.032 1036.87 109.246 1035.57 109.246C1034.2 109.246 1033.28 110.099 1033.04 111.738ZM1041.2 116.973V108.109H1042.49L1042.52 109.665C1042.96 108.578 1043.88 107.909 1045.01 107.909C1046.35 107.909 1047.29 108.578 1047.67 109.765C1048.06 108.578 1048.96 107.909 1050.27 107.909C1052.15 107.909 1053.19 109.129 1053.19 111.27V116.973H1051.79V111.571C1051.79 109.966 1051.15 109.146 1049.93 109.146C1048.69 109.146 1047.89 110.083 1047.89 111.671V116.973H1046.49V111.671C1046.49 110.099 1045.97 109.146 1044.66 109.146C1043.43 109.146 1042.61 110.099 1042.61 111.671V116.973H1041.2Z" fill="black" fill-opacity="0.8"/>
</g>
</svg>
